<?xml version="1.0" encoding="UTF-8"?>
<svg id="Layer_1" xmlns="http://www.w3.org/2000/svg" version="1.1" viewBox="0 0 333.81 51.36">
  <!-- Generator: Adobe Illustrator 30.3.0, SVG Export Plug-In . SVG Version: 2.1.3 Build 182)  -->
  <defs>
    <style>
      .st0 {
        fill: #c1d83f;
      }
    </style>
  </defs>
  <path class="st0" d="M20.74,36.63c-1.04-.07-2.12-.14-3.06-.61-.9-.4-1.58-1.22-2.02-2.12-.68-1.4-.94-2.99-1.08-4.54-.25-2.48-.43-4.97-.32-7.45.04-1.12.22-4.5.94-5.36-.61.11-1.3.36-1.91.14-.54-.22-.86-.79-1.12-1.33-.43-.94-.58-3.42-.11-4.36.4-.72,1.3-1.08,2.09-1.26,1.3-.32,2.59-.58,3.89-.76,2.3-.29,4.68-.36,6.98-.25,1.37.04,2.74.07,4.1.32,1.4.25,2.84.68,4,1.51.9.68,1.62,1.66,1.94,2.7.4,1.33.29,2.88-.25,4.14-.47,1.01-1.33,1.8-2.23,2.48.79.25,1.55.61,2.23,1.12.72.5,1.33,1.26,1.76,2.05.94,1.76,1.12,4.1.47,5.98-.5,1.4-1.33,2.7-2.38,3.78-.97,1.01-2.2,1.8-3.42,2.45-1.94,1.01-4.21,1.4-6.41,1.44-.54,0-3.56-.04-4.1-.07ZM14.22,14.49c0-.11-.07-.72-.07-.83v-.97c0-.18.22-.32.29-.5.14-.25.5-.36.79-.47.68-.22,1.44-.32,2.16-.4.14,0,.76,0,.86-.04.25-.07.5-.32.47-.58-.07-.36-.61-.32-.97-.32-.72.07-1.4.18-2.05.32-.61.18-1.22.36-1.69.72-.22.14-.65.79-.72,1.01-.14.4-.04,1.8.04,2.2.11.5.83.36.9-.14ZM20.16,11.14c.54-.04.61-.79.07-.76-.58.04-.65.79-.07.76ZM23.11,19.1c.72-.04,1.44-.18,2.09-.5.14-.04.5-.25.58-.36.18-.25.18-.9,0-1.19-.29-.5-.97-.79-1.58-.79-.29,0-1.12.04-1.33.22-.18.14-.25.43-.29.65-.07.65-.04,1.3-.04,1.91.18,0,.4.07.58.07ZM23.29,28.6c.76-.07,1.51,0,2.27-.11.9-.11,2.41-.68,2.59-1.58.14-.47-.14-1.4-.5-1.76-.22-.18-.47-.25-.72-.32-.79-.22-2.77-.4-3.42.07-.32.25-.32,1.22-.32,1.62,0,.32.04,1.8.11,2.09Z"/>
  <path class="st0" d="M43.99,35.76c-1.08-.43-2.09-1.22-2.81-2.16-1.04-1.3-1.66-3.02-1.8-4.68-.22-2.45.07-5.04.97-7.34.43-1.15,1.01-2.23,1.8-3.2,2.2-2.7,5.94-3.92,9.32-3.1,1.37.36,2.74,1.08,3.71,2.12,1.19,1.26,1.8,3.06,2.02,4.75.36,2.56.04,5.18-.18,7.78-.11,1.19-.29,2.38-.65,3.49-.22.61-.43,1.19-.79,1.69-.5.65-1.3,1.04-2.09.97-1.04-.07-2.05-.94-2.59-1.84-.86.9-2.05,1.62-3.28,1.87-1.19.25-2.52.11-3.64-.36ZM42.52,23.31c0-.22.29-1.15.36-1.37.14-.43.68-1.94,1.04-2.27.25-.22.47-.5.68-.76.14-.18.94-.68,1.15-.79.76.07.72-.97,0-.76-.36.07-1.44.68-1.69.94-.22.18-.36.47-.58.68-.18.18-.4.32-.5.58-.4.61-1.4,3.13-1.48,3.85-.07.61,1.01.54,1.01-.11ZM49.57,27.77c.29-.18.54-.43.76-.72.54-.76.97-1.69.94-2.63-.07-1.44-1.3-2.63-2.7-2.23-1.19.29-2.23,1.94-2.27,3.17-.07,1.84,1.69,3.35,3.28,2.41ZM47.88,16.5c-.47,0-.68.58-.29.76.72.29,1.04-.83.29-.76Z"/>
  <path class="st0" d="M67.25,36.37c-.54.36-1.19.68-1.84.72-.58.04-1.19-.18-1.66-.5-.76-.5-1.33-1.33-1.8-2.16-.86-1.62-1.37-3.46-1.62-5.29-.68-5.18-.72-10.62.58-15.66.65-2.41,2.45-5.11,4.9-4.61.72.11,1.4.54,1.91,1.08.54.61.83,1.4,1.01,2.2.25,1.44.14,2.95.04,4.43,1.48-.83,3.28-1.58,4.93-1.22.97.22,1.91.68,2.66,1.3,1.12.86,1.98,2.12,2.52,3.46,1.4,3.28,1.48,7.38.14,10.73-.58,1.51-1.58,2.95-2.77,4.07-.76.76-1.66,1.37-2.59,1.76-1.98.83-4.5.65-6.41-.29ZM62.46,17.94c.04-.11-.04-.61-.04-.72.04-.79.14-1.58.29-2.38.07-.47.58-2.09.86-2.45.04-.07.14-.25.22-.29.76-.18.25-1.04-.36-.61-.68.47-1.4,2.59-1.55,3.42-.14.94-.29,1.91-.29,2.88-.18.5.68.65.86.14ZM65.63,10.75c.36-.25.11-.72-.29-.61-.86.22-.43,1.12.29.61ZM71.57,28.74c.54-.43.86-1.12,1.01-1.8.32-1.55.14-4.1-1.26-4.86-.47-.25-.97-.22-1.44.07-1.4.83-1.66,3.53-1.26,5.11.36,1.4,1.84,2.38,2.95,1.48Z"/>
  <path class="st0" d="M88.09,36.45c-1.37-.4-2.66-1.19-3.67-2.23-1.04-1.12-1.76-2.59-2.16-4.07-.65-2.56-.54-5.36.11-7.92.58-2.2,1.84-4.18,3.64-5.54,1.44-1.15,3.31-1.87,5.15-1.98,1.69-.07,3.46.4,4.9,1.26.79.47,1.55,1.04,2.05,1.8.76,1.19,1.04,2.7.97,4.1-.11,1.73-.83,3.64-2.16,4.72-.54.47-1.19.76-1.87.94-1.12.29-2.3.5-3.49.43-.79-.04-1.62-.18-2.34-.58.07.5.25,1.04.65,1.4.43.4,1.12.5,1.73.47,1.26-.04,2.45-.47,3.71-.65.5-.11,1.08-.14,1.55.04,1.66.65,1.98,2.95,1.51,4.64-.22.65-.72,1.22-1.26,1.66-.79.65-1.76,1.19-2.77,1.44-2.02.54-4.25.68-6.23.07ZM85.03,21.54c.18-.5.32-1.04.61-1.51.29-.43,1.4-1.8,1.87-2.05.11-.04.22-.11.32-.22.14-.11.32-.18.5-.25.04,0,.22-.11.25-.07.4.07.79-.43.43-.68-.14-.11-.58-.04-.76.04-.32.14-.68.29-.97.5-.07.07-.47.32-.54.36-.22.14-1.12,1.12-1.3,1.33-.36.43-1.26,1.94-1.3,2.52-.04.5.68.47.86.04ZM91.08,15.86c-.43-.29-1.04.29-.61.58.43.32,1.04-.29.61-.58ZM92.38,23.49c.61-.18,1.12-.68,1.44-1.26.61-1.12-.79-2.2-1.87-1.55-.58.36-1.22.86-1.44,1.51-.29,1.01.86,1.58,1.87,1.3Z"/>
  <path class="st0" d="M105.73,36.63c-1.04-.18-2.12-.5-2.99-1.12-.54-.36-1.04-.9-1.22-1.51-.14-.43-.18-.86-.22-1.3-.04-1.26.29-3.38,1.44-3.85.58-.22,1.26-.25,1.87-.14.32.07,1.91.68,2.23.79.61.25,1.3.54,1.94.43.54-.14.76-.79.4-1.22-.47-.61-2.88-1.22-3.64-1.48-1.22-.36-2.34-1.19-3.02-2.27-1.84-2.81-1.3-7.45,1.19-9.65,1.01-.9,2.38-1.37,3.71-1.62,2.12-.36,4.39-.22,6.44.47,3.2,1.08,4,5.22,1.4,7.45-.36.32-.86.5-1.37.58-.83.11-1.73-.07-2.52-.36-.94-.36-2.63-.36-2.05.43.5.68,3.17,1.4,3.96,1.69.54.18,1.08.43,1.55.76,1.08.76,1.8,2.09,2.09,3.38.5,2.16-.07,4.57-1.51,6.19-.79.94-1.91,1.58-3.06,1.98-2.09.72-4.43.72-6.62.36ZM103.82,21.87c-.36-.76-.25-1.76,0-2.59.32-1.08.97-2.27,1.94-2.81.07-.04.25-.14.32-.14.47.04.79-.54.36-.72-.22-.07-.47-.04-.68.07-.86.32-1.62,1.08-2.12,1.87-.47.76-.79,1.8-.9,2.66-.11.65-.07,1.37.18,1.98.22.54,1.15.22.9-.32ZM108.18,15.53c.54-.58-.54-1.08-.83-.32-.14.43.5.68.83.32Z"/>
  <path class="st0" d="M131.72,36.41c-.61-.32-1.08-.9-1.48-1.48-.86-1.3-1.26-2.92-1.51-4.5-.4-2.48-.36-5.11.4-7.49.25-.79.58-1.58,1.19-2.16l.04-.04c.47-.65,1.15-1.19,1.91-1.48.86-.29,3.1-.07,3.89.36.4.22,1.33,1.19,1.51,1.58.43,1.01.72,2.09.79,3.17.11,1.84-.18,3.67-.47,5.51-.22,1.51-.47,3.06-1.08,4.46-.32.68-.68,1.4-1.26,1.84-.9.65-2.95.72-3.92.22ZM130.36,16.94c-1.19-1.08-1.44-3.1-.5-4.54.58-.86,1.4-1.58,2.38-1.98.9-.36,1.94-.4,2.92-.18.54.14,1.08.4,1.58.68.68.43,1.33,1.04,1.62,1.8.25.54.29,1.19.18,1.76-.25,1.33-1.22,2.74-2.48,3.28-1.48.61-4.46.22-5.69-.83ZM130.93,27.45v-.5c-.04-.25-.07-1.51-.04-1.8.04-.14.11-.97.18-1.12.07-.32.47-1.37.76-1.58.54-.4-.14-.97-.61-.5-.54.58-1.22,2.66-1.22,3.46,0,.29-.07,1.69,0,1.98.04.11.14.43.22.5.29.18.76-.07.72-.43ZM131.33,14.96c.11-.18,0-.4.04-.61.07-.43.36-1.4.76-1.58.54-.25.22-.86-.32-.61-.4.14-.97,1.15-1.12,1.55-.11.29-.32,1.12-.18,1.4.18.36.68.22.83-.14ZM132.41,21.47c.54-.04.65-.79.07-.76-.54.04-.61.79-.07.76ZM133.81,11.43c-.32-.4-.79-.07-.83.32-.07.68,1.12,0,.83-.32Z"/>
  <path class="st0" d="M153.5,35.65c-.5-.68-.76-1.58-.86-2.41-.29-2.48.11-5-.07-7.45-.04-.94-.14-1.91-.61-2.7-.11-.22-.32-.47-.58-.61-.72-.4-1.26.58-1.48,1.37-.18.72-.22,1.44-.25,2.16-.11,2.27.11,4.54-.14,6.8-.07.9-.22,1.84-.65,2.59-1.04,1.84-3.56,1.76-4.97.22-.9-1.01-1.3-2.38-1.66-3.64-1.12-4.25-1.62-8.85-.72-13.1.29-1.3.61-2.74,1.55-3.71,1.83-1.87,4.97-1.01,6.12,1.4,1.08-.94,2.38-1.76,3.78-1.98.9-.14,1.84-.07,2.66.29.94.36,1.73,1.04,2.34,1.84.86,1.04,1.44,2.3,1.76,3.6.54,2.05.61,4.21.58,6.33,0,2.66-.22,5.47-1.3,7.92-.32.79-.97,1.55-1.73,1.94-1.33.65-2.88.29-3.78-.86ZM143.42,25c.07-.18-.04-.86-.07-1.08-.18-1.22-.04-2.48.11-3.74.07-.54.43-1.94.9-2.27.29-.22.18-.65-.22-.61-.29,0-.68.5-.83.79-.18.32-.61,1.76-.65,2.16-.18,1.33-.36,2.7-.18,4.03.04.18.04.79.18.9.18.25.65.14.76-.18ZM145.55,16.43c.68-.18.54-1.01-.14-.83-.65.14-.5,1.01.14.83Z"/>
  <path class="st0" d="M180.18,36.63c-1.04-.07-2.12-.14-3.06-.61-.9-.4-1.58-1.22-2.02-2.12-.68-1.4-.94-2.99-1.08-4.54-.25-2.48-.43-4.97-.32-7.45.04-1.12.22-4.5.94-5.36-.61.11-1.3.36-1.91.14-.54-.22-.86-.79-1.12-1.33-.43-.94-.58-3.42-.11-4.36.4-.72,1.3-1.08,2.09-1.26,1.3-.32,2.59-.58,3.89-.76,2.3-.29,4.68-.36,6.98-.25,1.37.04,2.74.07,4.1.32,1.4.25,2.84.68,4,1.51.9.68,1.62,1.66,1.94,2.7.4,1.33.29,2.88-.25,4.14-.47,1.01-1.33,1.8-2.23,2.48.79.25,1.55.61,2.23,1.12.72.5,1.33,1.26,1.76,2.05.94,1.76,1.12,4.1.47,5.98-.5,1.4-1.33,2.7-2.38,3.78-.97,1.01-2.2,1.8-3.42,2.45-1.94,1.01-4.21,1.4-6.41,1.44-.54,0-3.56-.04-4.1-.07ZM173.66,14.49c0-.11-.07-.72-.07-.83v-.97c0-.18.22-.32.29-.5.14-.25.5-.36.79-.47.68-.22,1.44-.32,2.16-.4.14,0,.76,0,.86-.04.25-.07.5-.32.47-.58-.07-.36-.61-.32-.97-.32-.72.07-1.4.18-2.05.32-.61.18-1.22.36-1.69.72-.22.14-.65.79-.72,1.01-.14.4-.04,1.8.04,2.2.11.5.83.36.9-.14ZM179.6,11.14c.54-.04.61-.79.07-.76-.58.04-.65.79-.07.76ZM182.55,19.1c.72-.04,1.44-.18,2.09-.5.14-.04.5-.25.58-.36.18-.25.18-.9,0-1.19-.29-.5-.97-.79-1.58-.79-.29,0-1.12.04-1.33.22-.18.14-.25.43-.29.65-.07.65-.04,1.3-.04,1.91.18,0,.4.07.58.07ZM182.73,28.6c.76-.07,1.51,0,2.27-.11.9-.11,2.41-.68,2.59-1.58.14-.47-.14-1.4-.5-1.76-.22-.18-.47-.25-.72-.32-.79-.22-2.77-.4-3.42.07-.32.25-.32,1.22-.32,1.62,0,.32.04,1.8.11,2.09Z"/>
  <path class="st0" d="M202.32,36.41c-.61-.32-1.08-.9-1.48-1.48-.86-1.3-1.26-2.92-1.51-4.5-.4-2.48-.36-5.11.4-7.49.25-.79.58-1.58,1.19-2.16l.04-.04c.47-.65,1.15-1.19,1.91-1.48.86-.29,3.1-.07,3.89.36.4.22,1.33,1.19,1.51,1.58.43,1.01.72,2.09.79,3.17.11,1.84-.18,3.67-.47,5.51-.22,1.51-.47,3.06-1.08,4.46-.32.68-.68,1.4-1.26,1.84-.9.65-2.95.72-3.92.22ZM200.95,16.94c-1.19-1.08-1.44-3.1-.5-4.54.58-.86,1.4-1.58,2.38-1.98.9-.36,1.94-.4,2.92-.18.54.14,1.08.4,1.58.68.68.43,1.33,1.04,1.62,1.8.25.54.29,1.19.18,1.76-.25,1.33-1.22,2.74-2.48,3.28-1.48.61-4.46.22-5.69-.83ZM201.53,27.45v-.5c-.04-.25-.07-1.51-.04-1.8.04-.14.11-.97.18-1.12.07-.32.47-1.37.76-1.58.54-.4-.14-.97-.61-.5-.54.58-1.22,2.66-1.22,3.46,0,.29-.07,1.69,0,1.98.04.11.14.43.22.5.29.18.76-.07.72-.43ZM201.92,14.96c.11-.18,0-.4.04-.61.07-.43.36-1.4.76-1.58.54-.25.22-.86-.32-.61-.4.14-.97,1.15-1.12,1.55-.11.29-.32,1.12-.18,1.4.18.36.68.22.83-.14ZM203,21.47c.54-.04.65-.79.07-.76-.54.04-.61.79-.07.76ZM204.41,11.43c-.32-.4-.79-.07-.83.32-.07.68,1.12,0,.83-.32Z"/>
  <path class="st0" d="M228.34,36.48c-.83-.11-1.58-.47-2.3-.86-2.02-1.22-3.78-2.88-5.33-4.64-.14,1.51-.4,3.2-1.4,4.39-.5.58-1.37.9-2.16.86-.86,0-1.76-.32-2.41-.9-.36-.32-.65-.76-.83-1.19-.5-1.26-.83-2.59-1.08-3.92-.58-3.24-.83-6.55-.83-9.86,0-2.66.07-5.36.68-7.95.25-1.22.94-2.3,1.91-3.06.61-.47,1.33-.79,2.09-.9,2.52-.4,4.39,1.8,4.61,4.32.07.94,0,5.98-.04,6.88,1.22-1.48,2.63-2.88,4.28-3.82.83-.47,1.73-.79,2.66-.79,2.45-.04,4.39,2.02,4.17,4.46-.07.83-.36,1.62-.83,2.34-.54.83-1.33,1.51-2.12,2.12-.94.72-1.98,1.37-3.02,1.98,1.12,1.04,2.23,2.12,3.17,3.35.61.86,1.19,1.84,1.4,2.92.29,1.33.07,3.46-1.15,4.07-.47.22-1.01.25-1.48.22ZM214.52,19.28c0-.14-.14-.94-.14-1.12-.04-1.48-.04-3.02.32-4.43.07-.4.58-1.33.86-1.55.58-.4.04-1.01-.47-.5-.07.07-.14.14-.22.22-.68.79-1.04,1.84-1.26,2.84-.11.61-.22,3.2-.14,3.78.04.29,0,.97.22,1.12.29.18.76,0,.83-.36ZM216.93,10.85c.25-.04.58-.32.54-.58-.07-.4-.68-.32-.9,0-.18.25.04.61.36.58Z"/>
  <path class="st0" d="M240.37,36.45c-1.37-.4-2.66-1.19-3.67-2.23-1.04-1.12-1.76-2.59-2.16-4.07-.65-2.56-.54-5.36.11-7.92.58-2.2,1.84-4.18,3.64-5.54,1.44-1.15,3.31-1.87,5.15-1.98,1.69-.07,3.46.4,4.9,1.26.79.47,1.55,1.04,2.05,1.8.76,1.19,1.04,2.7.97,4.1-.11,1.73-.83,3.64-2.16,4.72-.54.47-1.19.76-1.87.94-1.12.29-2.3.5-3.49.43-.79-.04-1.62-.18-2.34-.58.07.5.25,1.04.65,1.4.43.4,1.12.5,1.73.47,1.26-.04,2.45-.47,3.71-.65.5-.11,1.08-.14,1.55.04,1.66.65,1.98,2.95,1.51,4.64-.22.65-.72,1.22-1.26,1.66-.79.65-1.76,1.19-2.77,1.44-2.02.54-4.25.68-6.23.07ZM237.31,21.54c.18-.5.32-1.04.61-1.51.29-.43,1.4-1.8,1.87-2.05.11-.04.22-.11.32-.22.14-.11.32-.18.5-.25.04,0,.22-.11.25-.07.4.07.79-.43.43-.68-.14-.11-.58-.04-.76.04-.32.14-.68.29-.97.5-.07.07-.47.32-.54.36-.22.14-1.12,1.12-1.3,1.33-.36.43-1.26,1.94-1.3,2.52-.04.5.68.47.86.04ZM243.36,15.86c-.43-.29-1.04.29-.61.58.43.32,1.04-.29.61-.58ZM244.65,23.49c.61-.18,1.12-.68,1.44-1.26.61-1.12-.79-2.2-1.87-1.55-.58.36-1.22.86-1.44,1.51-.29,1.01.86,1.58,1.87,1.3Z"/>
  <path class="st0" d="M256.68,35.91c-.36-.32-.65-.72-.83-1.15-.54-1.33-.86-2.77-1.12-4.18-.54-3.1-.79-6.26-.79-9.43,0-2.7.11-5.44.65-8.1.18-.83.54-1.66,1.08-2.34,1.58-1.91,4.46-2.38,6.19-.58.72.76,1.15,1.8,1.3,2.84.47,2.56-.25,14.83-.4,17.39-.07,1.19-.18,2.34-.5,3.46-.22.83-.54,1.66-1.15,2.27-1.12,1.19-3.17.86-4.43-.18ZM256.14,18.56c0-.11-.04-.68-.04-.79.04-1.51.04-3.13.72-4.46.11-.22.5-.9.72-1.01.25-.11.4-.43.14-.61-.32-.22-.72.18-1.01.5-.54.61-.86,1.44-1.12,2.23-.18.58-.32,1.15-.4,1.76-.07.36-.11,1.98-.07,2.38.11.54.97.54,1.04,0ZM259.02,10.78c-.32-.22-.86,0-.79.47.11.5,1.37-.07.79-.47Z"/>
  <path class="st0" d="M270.5,35.76c-1.08-.43-2.09-1.22-2.81-2.16-1.04-1.3-1.66-3.02-1.8-4.68-.22-2.45.07-5.04.97-7.34.43-1.15,1.01-2.23,1.8-3.2,2.2-2.7,5.94-3.92,9.32-3.1,1.37.36,2.74,1.08,3.71,2.12,1.19,1.26,1.8,3.06,2.02,4.75.36,2.56.04,5.18-.18,7.78-.11,1.19-.29,2.38-.65,3.49-.22.61-.43,1.19-.79,1.69-.5.65-1.3,1.04-2.09.97-1.04-.07-2.05-.94-2.59-1.84-.86.9-2.05,1.62-3.28,1.87-1.19.25-2.52.11-3.64-.36ZM269.03,23.31c0-.22.29-1.15.36-1.37.14-.43.68-1.94,1.04-2.27.25-.22.47-.5.68-.76.14-.18.94-.68,1.15-.79.76.07.72-.97,0-.76-.36.07-1.44.68-1.69.94-.22.18-.36.47-.58.68-.18.18-.4.32-.5.58-.4.61-1.4,3.13-1.48,3.85-.07.61,1.01.54,1.01-.11ZM276.08,27.77c.29-.18.54-.43.76-.72.54-.76.97-1.69.94-2.63-.07-1.44-1.3-2.63-2.7-2.23-1.19.29-2.23,1.94-2.27,3.17-.07,1.84,1.69,3.35,3.28,2.41ZM274.39,16.5c-.47,0-.68.58-.29.76.72.29,1.04-.83.29-.76Z"/>
  <path class="st0" d="M298.58,35.65c-.5-.68-.76-1.58-.86-2.41-.29-2.48.11-5-.07-7.45-.04-.94-.14-1.91-.61-2.7-.11-.22-.32-.47-.58-.61-.72-.4-1.26.58-1.48,1.37-.18.72-.22,1.44-.25,2.16-.11,2.27.11,4.54-.14,6.8-.07.9-.22,1.84-.65,2.59-1.04,1.84-3.56,1.76-4.97.22-.9-1.01-1.3-2.38-1.66-3.64-1.12-4.25-1.62-8.85-.72-13.1.29-1.3.61-2.74,1.55-3.71,1.83-1.87,4.97-1.01,6.12,1.4,1.08-.94,2.38-1.76,3.78-1.98.9-.14,1.84-.07,2.66.29.94.36,1.73,1.04,2.34,1.84.86,1.04,1.44,2.3,1.76,3.6.54,2.05.61,4.21.58,6.33,0,2.66-.22,5.47-1.3,7.92-.32.79-.97,1.55-1.73,1.94-1.33.65-2.88.29-3.78-.86ZM288.5,25c.07-.18-.04-.86-.07-1.08-.18-1.22-.04-2.48.11-3.74.07-.54.43-1.94.9-2.27.29-.22.18-.65-.22-.61-.29,0-.68.5-.83.79-.18.32-.61,1.76-.65,2.16-.18,1.33-.36,2.7-.18,4.03.04.18.04.79.18.9.18.25.65.14.76-.18ZM290.63,16.43c.68-.18.54-1.01-.14-.83-.65.14-.5,1.01.14.83Z"/>
  <path class="st0" d="M313.95,36.73c-2.02-.79-3.71-2.59-4.82-4.46-.76-1.33-1.22-2.84-1.44-4.36-.43-2.84-.07-5.94,1.22-8.49.68-1.33,1.69-2.56,2.95-3.31.68-.4,1.4-.68,2.16-.79,1.62-.22,3.28.5,4.68,1.26-.11-1.44.11-2.95.65-4.32.32-.72.76-1.44,1.33-1.98,1.4-1.37,4-1.62,5.54-.4.54.43.94,1.04,1.15,1.66.18.65.18,1.33.07,1.98-.43,2.81-.58,5.69-.65,8.53-.04,3.35.07,6.7.29,10.01.07.9.11,1.87-.18,2.74-.18.58-.54,1.12-1.01,1.48-.58.5-1.37.76-2.12.83-1.22.11-2.48-.18-3.56-.72-1.87.9-4.32,1.12-6.26.36ZM310.89,22.8c0-.65.11-1.33.36-1.94.11-.36.76-1.73,1.01-2.02.36-.36.79-.72,1.26-.9.11-.04.22-.11.32-.07.54.07.76-.58.25-.76-.4-.14-1.26.25-1.62.5-.47.29-.9.65-1.19,1.12-.54.86-.94,1.84-1.19,2.81-.04.11-.22.61-.22.72,0,.18-.04.76.11.94.29.29.9.04.9-.4ZM318.88,27.16c.36-1.51.04-4.14-1.26-5-.36-.22-.83-.29-1.22-.18-1.55.54-1.8,2.99-1.55,4.61.11.86.5,1.91,1.3,2.3,1.19.65,2.41-.4,2.74-1.73ZM316.22,17.3c.47-.32.11-.9-.4-.68-.9.43-.4,1.26.4.68Z"/>
</svg>