<?xml version="1.0" encoding="UTF-8"?>
<svg id="Layer_1" xmlns="http://www.w3.org/2000/svg" version="1.1" viewBox="0 0 122.67 51.36">
  <!-- Generator: Adobe Illustrator 30.3.0, SVG Export Plug-In . SVG Version: 2.1.3 Build 182)  -->
  <defs>
    <style>
      .st0 {
        fill: #c1d83f;
      }
    </style>
  </defs>
  <path class="st0" d="M19.96,36.88c-1.69-.11-3.42-.5-4.86-1.37-.68-.4-1.3-.9-1.73-1.55-.61-.86-.94-1.87-1.22-2.88-.43-1.51-.68-3.06-.76-4.61-.14-3.74-.32-7.52.58-11.16.29-1.33.79-2.66,1.66-3.71.47-.61,1.12-1.12,1.84-1.44,2.02-.86,4.28-1.19,6.44-1.19,2.23-.04,4.54.29,6.55,1.3,2.88,1.4,2.45,5.47-.61,6.48-1.4.47-2.95.11-4.46.11-.65-.04-1.37,0-1.94.32-.29.18-.5.54-.54.9-.07.36-.11.97.25,1.08.25.11,1.3.07,1.55.07,1.37-.04,2.74-.14,4.07.11.72.14,1.51.43,2.02,1.01.72.86.58,2.92.07,3.92-.29.5-.79.9-1.33,1.12-1.62.61-3.46.07-5.18.04-.65,0-1.37,0-1.87.4-.47.36-.65,1.4-.5,1.94.29,1.3,2.09,1.04,3.38.83.94-.18,4.25-.61,5.15-.32,1.22.43,1.98,2.3,1.94,3.6,0,.5-.14,1.08-.47,1.48-.5.72-1.22,1.3-1.98,1.76-2.34,1.44-5.29,1.94-8.03,1.76ZM13.88,18.59v-1.19c.04-.54.43-2.77.65-3.28.07-.22.22-.4.32-.61.43-.83,1.26-1.48,2.12-1.87.25-.14.36-.47.14-.61-.36-.25-1.08.11-1.44.32-.68.47-1.37,1.08-1.69,1.84-.07.11-.4.72-.43.83-.22.58-.61,3.1-.61,3.74-.04.32-.11,1.04.14,1.22.29.18.76-.04.79-.4ZM18.56,10.31c-.54-.11-.79.43-.4.72.54.36,1.01-.65.4-.72Z"/>
  <path class="st0" d="M40.01,35.91c-.79-.68-1.4-1.55-1.98-2.41-1.55-2.27-2.77-4.72-3.78-7.24-.83-2.09-1.55-4.21-1.87-6.44-.14-.94-.04-1.94.4-2.77,1.4-2.59,5-2.95,6.77-.61.72.94.68,2.23,1.01,3.31.29.83,1.4,6.16,1.69,6.98.29-.83,1.26-5.83,1.48-6.7.11-.43.83-2.52,1.01-2.92,1.51-3.24,6.08-2.59,7.24.76.32.94.18,1.98-.04,2.95-.4,1.94-1.04,3.82-1.8,5.65-.83,1.98-1.8,3.92-2.88,5.72-.68,1.12-1.4,2.2-2.27,3.13-.43.47-.9.9-1.48,1.12-1.08.47-2.59.22-3.49-.54ZM35.87,25c.14-.22-.14-.83-.25-1.12-.04-.11-.07-.25-.11-.4-.04-.18-.4-1.08-.43-1.22-.32-1.04-.54-2.16-.5-3.24,0-.14,0-.54.11-.65.32-.36-.18-.76-.58-.47-.22.18-.36.79-.4,1.08-.04.65,0,1.3.11,1.94.07.25.32,1.44.4,1.66.11.29.72,2.02.83,2.3.11.4.58.47.83.11ZM35.73,16.83c.07-.54-.83-.4-.9.14-.04.5.86.4.9-.14Z"/>
  <path class="st0" d="M59.99,36.45c-1.37-.4-2.66-1.19-3.67-2.23-1.04-1.12-1.76-2.59-2.16-4.07-.65-2.56-.54-5.36.11-7.92.58-2.2,1.84-4.18,3.64-5.54,1.44-1.15,3.31-1.87,5.15-1.98,1.69-.07,3.46.4,4.9,1.26.79.47,1.55,1.04,2.05,1.8.76,1.19,1.04,2.7.97,4.1-.11,1.73-.83,3.64-2.16,4.72-.54.47-1.19.76-1.87.94-1.12.29-2.3.5-3.49.43-.79-.04-1.62-.18-2.34-.58.07.5.25,1.04.65,1.4.43.4,1.12.5,1.73.47,1.26-.04,2.45-.47,3.71-.65.5-.11,1.08-.14,1.55.04,1.66.65,1.98,2.95,1.51,4.64-.22.65-.72,1.22-1.26,1.66-.79.65-1.76,1.19-2.77,1.44-2.02.54-4.25.68-6.23.07ZM56.93,21.54c.18-.5.32-1.04.61-1.51.29-.43,1.4-1.8,1.87-2.05.11-.04.22-.11.32-.22.14-.11.32-.18.5-.25.04,0,.22-.11.25-.07.4.07.79-.43.43-.68-.14-.11-.58-.04-.76.04-.32.14-.68.29-.97.5-.07.07-.47.32-.54.36-.22.14-1.12,1.12-1.3,1.33-.36.43-1.26,1.94-1.3,2.52-.04.5.68.47.86.04ZM62.98,15.86c-.43-.29-1.04.29-.61.58.43.32,1.04-.29.61-.58ZM64.27,23.49c.61-.18,1.12-.68,1.44-1.26.61-1.12-.79-2.2-1.87-1.55-.58.36-1.22.86-1.44,1.51-.29,1.01.86,1.58,1.87,1.3Z"/>
  <path class="st0" d="M85.66,35.65c-.5-.68-.76-1.58-.86-2.41-.29-2.48.11-5-.07-7.45-.04-.94-.14-1.91-.61-2.7-.11-.22-.32-.47-.58-.61-.72-.4-1.26.58-1.48,1.37-.18.72-.22,1.44-.25,2.16-.11,2.27.11,4.54-.14,6.8-.07.9-.22,1.84-.65,2.59-1.04,1.84-3.56,1.76-4.97.22-.9-1.01-1.3-2.38-1.66-3.64-1.12-4.25-1.62-8.85-.72-13.1.29-1.3.61-2.74,1.55-3.71,1.83-1.87,4.97-1.01,6.12,1.4,1.08-.94,2.38-1.76,3.78-1.98.9-.14,1.84-.07,2.66.29.94.36,1.73,1.04,2.34,1.84.86,1.04,1.44,2.3,1.76,3.6.54,2.05.61,4.21.58,6.33,0,2.66-.22,5.47-1.3,7.92-.32.79-.97,1.55-1.73,1.94-1.33.65-2.88.29-3.78-.86ZM75.58,25c.07-.18-.04-.86-.07-1.08-.18-1.22-.04-2.48.11-3.74.07-.54.43-1.94.9-2.27.29-.22.18-.65-.22-.61-.29,0-.68.5-.83.79-.18.32-.61,1.76-.65,2.16-.18,1.33-.36,2.7-.18,4.03.04.18.04.79.18.9.18.25.65.14.76-.18ZM77.7,16.43c.68-.18.54-1.01-.14-.83-.65.14-.5,1.01.14.83Z"/>
  <path class="st0" d="M104.59,36.52c-1.73,0-3.56-.5-4.93-1.55-1.33-1.01-2.16-2.41-2.41-4.1-.32-2.2-.22-4.43-.04-6.62-.43-.14-1.84-1.04-2.16-1.33-.4-.4-.79-.9-.9-1.48-.07-.58.14-1.15.4-1.69.4-.79,1.12-1.4,1.87-1.94.43-.32.97-.65,1.26-1.12.25-.5.25-1.08.32-1.62.14-1.01.22-2.12.68-3.06.22-.43.61-.83,1.04-1.08.54-.32,1.19-.43,1.84-.5.65-.04,1.33.04,1.94.25.58.25,1.15.65,1.44,1.19.25.43.36.94.4,1.44.07,1.08.04,2.16-.04,3.24,1.3-.07,2.59-.11,3.89.14.47.07.94.25,1.26.54,1.26,1.22,1.08,3.85.22,5.36-.36.58-1.08.97-1.76,1.15-1.01.29-2.09.11-3.13.04-.22-.04-.43-.07-.65-.11-.07.61-.07,1.22-.04,1.84.04.54.18,1.76.65,2.02.47.25,1.84-.07,2.34-.18.61-.18,1.3-.18,1.94-.07.58.11,1.19.54,1.4,1.08.61,1.4.9,3.06.54,4.54-.18.76-.65,1.51-1.26,1.98-1.73,1.26-4.03,1.62-6.12,1.66ZM99.7,16.25c-.04-.86,0-1.8.25-2.66.04-.18.25-.76.43-.86.58-.43-.25-.97-.68-.36-.54.79-.72,1.87-.79,2.88,0,.22-.11,1.04-.04,1.22.18.36.83.18.83-.22ZM101.72,11.93c.25-.11.36-.43.14-.61-.29-.18-.72.04-.76.36-.04.29.32.4.61.25Z"/>
</svg>