<?xml version="1.0" encoding="UTF-8"?>
<svg id="Layer_1" xmlns="http://www.w3.org/2000/svg" version="1.1" viewBox="0 0 211.78 51.36">
  <!-- Generator: Adobe Illustrator 30.3.0, SVG Export Plug-In . SVG Version: 2.1.3 Build 182)  -->
  <defs>
    <style>
      .st0 {
        fill: #c2d83f;
      }
    </style>
  </defs>
  <path class="st0" d="M11.15,35.4c-.76-.97-1.19-2.2-1.51-3.38-.4-1.55-.65-3.17-.72-4.79-.14-3.96-.32-8.03.65-11.91.32-1.22.76-2.52,1.55-3.56.43-.61,1.08-1.15,1.8-1.48,1.98-.94,4.25-1.3,6.44-1.3,2.27-.04,4.68.32,6.66,1.37.36.18.68.4.97.68,1.4,1.44,1.15,3.82-.29,5.22-.58.58-1.3.94-2.09,1.04-1.15.14-2.34-.07-3.53-.11-.65-.04-1.33-.04-1.94.25-.4.18-.65.5-.72.94-.07.36-.14,1.04.22,1.22.22.11,1.04.11,1.3.07,1.4,0,2.88-.14,4.28.11.76.14,1.58.43,2.09,1.04.36.47.5,1.08.47,1.69,0,.97-.07,2.09-.68,2.84-.5.65-1.4.9-2.19,1.04-1.44.18-2.92-.04-4.36.14-.58.07-1.26.22-1.66.61-.32.32-.47.83-.43,1.26.18,1.69.25,3.42.04,5.11-.14,1.08-.68,2.23-1.62,2.81-1.48.97-3.64.43-4.71-.94ZM11.61,19.74c-.07-.47.11-2.52.18-2.99.11-.72.29-1.44.54-2.12.22-.54,1.15-1.98,1.66-2.23.25-.11.47-.29.68-.47.32,0,.61-.32.4-.61-.25-.32-.76-.07-1.12.18-.14.11-.36.18-.5.29-.29.18-.54.36-.76.61-.54.61-1.01,1.33-1.33,2.09-.14.4-.58,2.23-.61,2.63-.04.43-.11,2.41-.04,2.84.07.47,1.01.25.9-.22ZM16.55,11.25c.18-.18.29-.43.07-.58-.25-.18-.76,0-.79.32-.04.4.47.54.72.25Z"/>
  <path class="st0" d="M33.32,35.62c-1.26-.83-2.23-2.12-2.77-3.53-.76-2.02-.97-4.21-.86-6.37.11-2.81.72-5.76,2.38-8.03.47-.65,1.04-1.26,1.73-1.66,1.66-.97,3.85-.76,4.68.97.4.76.4,1.69.32,2.52-.14,1.91-.58,3.82-.58,5.72-.04.86,0,1.76.36,2.59.14.29.36.65.68.72.58.18,1.04-.54,1.29-1.12.18-.4.29-.83.43-1.26.58-2.23.65-4.57,1.22-6.77.22-.86.5-1.69,1.01-2.41.25-.36.65-.65,1.08-.79,1.01-.36,2.34-.11,3.13.61.54.54.86,1.3,1.12,2.02.5,1.58.68,3.24.83,4.86.14,1.8.22,3.6.18,5.4-.04,1.44-.11,2.92-.47,4.36-.22.9-.54,1.84-1.19,2.48-1.04,1.04-2.92.76-4.03-.25-.58-.54-.9-1.3-1.19-2.05-2.09,2.95-6.33,3.92-9.36,1.98ZM32.24,23.06c.14-.22.07-.54.07-.83,0-.86.32-1.73.68-2.52.22-.47.5-.86.83-1.19.29-.29.04-.65-.36-.58-.5.14-.83.72-1.15,1.19-.47.72-1.22,3.06-1.04,3.92.07.47.72.43.97,0ZM35.41,17.19c.11-.29-.22-.47-.5-.4-.36.07-.5.5-.22.68s.61,0,.72-.29Z"/>
  <path class="st0" d="M64.39,35.65c-.5-.68-.76-1.58-.86-2.41-.29-2.48.11-5-.07-7.45-.04-.94-.14-1.91-.61-2.7-.11-.22-.32-.47-.58-.61-.72-.4-1.26.58-1.48,1.37-.18.72-.22,1.44-.25,2.16-.11,2.27.11,4.54-.14,6.8-.07.9-.22,1.84-.65,2.59-1.04,1.84-3.56,1.76-4.97.22-.9-1.01-1.3-2.38-1.66-3.64-1.12-4.25-1.62-8.85-.72-13.1.29-1.3.61-2.74,1.55-3.71,1.83-1.87,4.97-1.01,6.12,1.4,1.08-.94,2.38-1.76,3.78-1.98.9-.14,1.84-.07,2.66.29.94.36,1.73,1.04,2.34,1.84.86,1.04,1.44,2.3,1.76,3.6.54,2.05.61,4.21.58,6.33,0,2.66-.22,5.47-1.3,7.92-.32.79-.97,1.55-1.73,1.94-1.33.65-2.88.29-3.78-.86ZM54.31,25c.07-.18-.04-.86-.07-1.08-.18-1.22-.04-2.48.11-3.74.07-.54.43-1.94.9-2.27.29-.22.18-.65-.22-.61-.29,0-.68.5-.83.79-.18.32-.61,1.76-.65,2.16-.18,1.33-.36,2.7-.18,4.03.04.18.04.79.18.9.18.25.65.14.76-.18ZM56.43,16.43c.68-.18.54-1.01-.14-.83-.65.14-.5,1.01.14.83Z"/>
  <path class="st0" d="M79.76,36.73c-2.02-.79-3.71-2.59-4.82-4.46-.76-1.33-1.22-2.84-1.44-4.36-.43-2.84-.07-5.94,1.22-8.49.68-1.33,1.69-2.56,2.95-3.31.68-.4,1.4-.68,2.16-.79,1.62-.22,3.28.5,4.68,1.26-.11-1.44.11-2.95.65-4.32.32-.72.76-1.44,1.33-1.98,1.4-1.37,4-1.62,5.54-.4.54.43.94,1.04,1.15,1.66.18.65.18,1.33.07,1.98-.43,2.81-.58,5.69-.65,8.53-.04,3.35.07,6.7.29,10.01.07.9.11,1.87-.18,2.74-.18.58-.54,1.12-1.01,1.48-.58.5-1.37.76-2.12.83-1.22.11-2.48-.18-3.56-.72-1.87.9-4.32,1.12-6.26.36ZM76.7,22.8c0-.65.11-1.33.36-1.94.11-.36.76-1.73,1.01-2.02.36-.36.79-.72,1.26-.9.11-.04.22-.11.32-.07.54.07.76-.58.25-.76-.4-.14-1.26.25-1.62.5-.47.29-.9.65-1.19,1.12-.54.86-.94,1.84-1.19,2.81-.04.11-.22.61-.22.72,0,.18-.04.76.11.94.29.29.9.04.9-.4ZM84.69,27.16c.36-1.51.04-4.14-1.26-5-.36-.22-.83-.29-1.22-.18-1.55.54-1.8,2.99-1.55,4.61.11.86.5,1.91,1.3,2.3,1.19.65,2.41-.4,2.74-1.73ZM82.03,17.3c.47-.32.11-.9-.4-.68-.9.43-.4,1.26.4.68Z"/>
  <path class="st0" d="M99.06,36.27c-.79-.61-1.37-1.51-1.76-2.45-.79-1.91-1.12-4-1.3-6.05-.25-2.74-.11-5.62.79-8.21.22-.65.5-1.3.94-1.8t.04-.07c.43-.72,1.08-1.33,1.83-1.69.94-.47,3.1-.22,4,.36.32.25,1.22,1.33,1.4,1.69.14.25.18.5.29.79.65-.58,1.33-1.04,2.09-1.44,1.19-.65,2.81-.79,4.03-.25.97.43,1.8,1.3,2.2,2.3.32.76.36,1.62.32,2.45-.07.79-.22,1.62-.58,2.34-.22.47-.54.9-.97,1.19-.32.22-.76.32-1.15.29-1.12-.07-2.23-.54-3.31-.4-.76.11-1.4.79-1.8,1.44-.11.18-.61,1.01-.61,1.26-.29,2.23-.94,7.38-2.95,8.39-.86.47-2.74.47-3.49-.14ZM97.9,25.25c0-.22-.04-1.51,0-1.73.14-.97.25-1.94.54-2.88.22-.65.58-1.3,1.08-1.69.18-.14.43-.18.47-.4.11-.5-.61-.54-1.04-.22-.43.32-.79.76-1.04,1.22-.18.36-.61,1.94-.68,2.3-.04.18-.14,1.15-.18,1.33-.18.61.04,1.3-.18,1.87-.07.14.04.36.14.5.25.29.86.07.9-.32ZM101.47,18.05c.22-.22.25-.58-.04-.68-.36-.14-.72.22-.65.58.04.32.47.32.68.11Z"/>
  <path class="st0" d="M120.19,35.76c-1.08-.43-2.09-1.22-2.81-2.16-1.04-1.3-1.66-3.02-1.8-4.68-.22-2.45.07-5.04.97-7.34.43-1.15,1.01-2.23,1.8-3.2,2.2-2.7,5.94-3.92,9.32-3.1,1.37.36,2.74,1.08,3.71,2.12,1.19,1.26,1.8,3.06,2.02,4.75.36,2.56.04,5.18-.18,7.78-.11,1.19-.29,2.38-.65,3.49-.22.61-.43,1.19-.79,1.69-.5.65-1.3,1.04-2.09.97-1.04-.07-2.05-.94-2.59-1.84-.86.9-2.05,1.62-3.28,1.87-1.19.25-2.52.11-3.64-.36ZM118.71,23.31c0-.22.29-1.15.36-1.37.14-.43.68-1.94,1.04-2.27.25-.22.47-.5.68-.76.14-.18.94-.68,1.15-.79.76.07.72-.97,0-.76-.36.07-1.44.68-1.69.94-.22.18-.36.47-.58.68-.18.18-.4.32-.5.58-.4.61-1.4,3.13-1.48,3.85-.07.61,1.01.54,1.01-.11ZM125.77,27.77c.29-.18.54-.43.76-.72.54-.76.97-1.69.94-2.63-.07-1.44-1.3-2.63-2.7-2.23-1.19.29-2.23,1.94-2.27,3.17-.07,1.84,1.69,3.35,3.28,2.41ZM124.07,16.5c-.47,0-.68.58-.29.76.72.29,1.04-.83.29-.76Z"/>
  <path class="st0" d="M139.16,36.41c-.61-.32-1.08-.9-1.48-1.48-.86-1.3-1.26-2.92-1.51-4.5-.4-2.48-.36-5.11.4-7.49.25-.79.58-1.58,1.19-2.16l.04-.04c.47-.65,1.15-1.19,1.91-1.48.86-.29,3.1-.07,3.89.36.4.22,1.33,1.19,1.51,1.58.43,1.01.72,2.09.79,3.17.11,1.84-.18,3.67-.47,5.51-.22,1.51-.47,3.06-1.08,4.46-.32.68-.68,1.4-1.26,1.84-.9.65-2.95.72-3.92.22ZM137.79,16.94c-1.19-1.08-1.44-3.1-.5-4.54.58-.86,1.4-1.58,2.38-1.98.9-.36,1.94-.4,2.92-.18.54.14,1.08.4,1.58.68.68.43,1.33,1.04,1.62,1.8.25.54.29,1.19.18,1.76-.25,1.33-1.22,2.74-2.48,3.28-1.48.61-4.46.22-5.69-.83ZM138.37,27.45v-.5c-.04-.25-.07-1.51-.04-1.8.04-.14.11-.97.18-1.12.07-.32.47-1.37.76-1.58.54-.4-.14-.97-.61-.5-.54.58-1.22,2.66-1.22,3.46,0,.29-.07,1.69,0,1.98.04.11.14.43.22.5.29.18.76-.07.72-.43ZM138.76,14.96c.11-.18,0-.4.04-.61.07-.43.36-1.4.76-1.58.54-.25.22-.86-.32-.61-.4.14-.97,1.15-1.12,1.55-.11.29-.32,1.12-.18,1.4.18.36.68.22.83-.14ZM139.84,21.47c.54-.04.65-.79.07-.76-.54.04-.61.79-.07.76ZM141.25,11.43c-.32-.4-.79-.07-.83.32-.07.68,1.12,0,.83-.32Z"/>
  <path class="st0" d="M152.91,36.63c-1.04-.18-2.12-.5-2.99-1.12-.54-.36-1.04-.9-1.22-1.51-.14-.43-.18-.86-.22-1.3-.04-1.26.29-3.38,1.44-3.85.58-.22,1.26-.25,1.87-.14.32.07,1.91.68,2.23.79.61.25,1.3.54,1.94.43.54-.14.76-.79.4-1.22-.47-.61-2.88-1.22-3.64-1.48-1.22-.36-2.34-1.19-3.02-2.27-1.84-2.81-1.3-7.45,1.19-9.65,1.01-.9,2.38-1.37,3.71-1.62,2.12-.36,4.39-.22,6.44.47,3.2,1.08,4,5.22,1.4,7.45-.36.32-.86.5-1.37.58-.83.11-1.73-.07-2.52-.36-.94-.36-2.63-.36-2.05.43.5.68,3.17,1.4,3.96,1.69.54.18,1.08.43,1.55.76,1.08.76,1.8,2.09,2.09,3.38.5,2.16-.07,4.57-1.51,6.19-.79.94-1.91,1.58-3.06,1.98-2.09.72-4.43.72-6.62.36ZM151,21.87c-.36-.76-.25-1.76,0-2.59.32-1.08.97-2.27,1.94-2.81.07-.04.25-.14.32-.14.47.04.79-.54.36-.72-.22-.07-.47-.04-.68.07-.86.32-1.62,1.08-2.12,1.87-.47.76-.79,1.8-.9,2.66-.11.65-.07,1.37.18,1.98.22.54,1.15.22.9-.32ZM155.36,15.53c.54-.58-.54-1.08-.83-.32-.14.43.5.68.83.32Z"/>
  <path class="st0" d="M172.57,36.45c-1.37-.4-2.66-1.19-3.67-2.23-1.04-1.12-1.76-2.59-2.16-4.07-.65-2.56-.54-5.36.11-7.92.58-2.2,1.84-4.18,3.64-5.54,1.44-1.15,3.31-1.87,5.15-1.98,1.69-.07,3.46.4,4.9,1.26.79.47,1.55,1.04,2.05,1.8.76,1.19,1.04,2.7.97,4.1-.11,1.73-.83,3.64-2.16,4.72-.54.47-1.19.76-1.87.94-1.12.29-2.3.5-3.49.43-.79-.04-1.62-.18-2.34-.58.07.5.25,1.04.65,1.4.43.4,1.12.5,1.73.47,1.26-.04,2.45-.47,3.71-.65.5-.11,1.08-.14,1.55.04,1.66.65,1.98,2.95,1.51,4.64-.22.65-.72,1.22-1.26,1.66-.79.65-1.76,1.19-2.77,1.44-2.02.54-4.25.68-6.23.07ZM169.51,21.54c.18-.5.32-1.04.61-1.51.29-.43,1.4-1.8,1.87-2.05.11-.04.22-.11.32-.22.14-.11.32-.18.5-.25.04,0,.22-.11.25-.07.4.07.79-.43.43-.68-.14-.11-.58-.04-.76.04-.32.14-.68.29-.97.5-.07.07-.47.32-.54.36-.22.14-1.12,1.12-1.3,1.33-.36.43-1.26,1.94-1.3,2.52-.04.5.68.47.86.04ZM175.55,15.86c-.43-.29-1.04.29-.61.58.43.32,1.04-.29.61-.58ZM176.85,23.49c.61-.18,1.12-.68,1.44-1.26.61-1.12-.79-2.2-1.87-1.55-.58.36-1.22.86-1.44,1.51-.29,1.01.86,1.58,1.87,1.3Z"/>
  <path class="st0" d="M188.84,36.27c-.79-.61-1.37-1.51-1.76-2.45-.79-1.91-1.12-4-1.3-6.05-.25-2.74-.11-5.62.79-8.21.22-.65.5-1.3.94-1.8t.04-.07c.43-.72,1.08-1.33,1.83-1.69.94-.47,3.1-.22,4,.36.32.25,1.22,1.33,1.4,1.69.14.25.18.5.29.79.65-.58,1.33-1.04,2.09-1.44,1.19-.65,2.81-.79,4.03-.25.97.43,1.8,1.3,2.2,2.3.32.76.36,1.62.32,2.45-.07.79-.22,1.62-.58,2.34-.22.47-.54.9-.97,1.19-.32.22-.76.32-1.15.29-1.12-.07-2.23-.54-3.31-.4-.76.11-1.4.79-1.8,1.44-.11.18-.61,1.01-.61,1.26-.29,2.23-.94,7.38-2.95,8.39-.86.47-2.74.47-3.49-.14ZM187.69,25.25c0-.22-.04-1.51,0-1.73.14-.97.25-1.94.54-2.88.22-.65.58-1.3,1.08-1.69.18-.14.43-.18.47-.4.11-.5-.61-.54-1.04-.22-.43.32-.79.76-1.04,1.22-.18.36-.61,1.94-.68,2.3-.04.18-.14,1.15-.18,1.33-.18.61.04,1.3-.18,1.87-.07.14.04.36.14.5.25.29.86.07.9-.32ZM191.25,18.05c.22-.22.25-.58-.04-.68-.36-.14-.72.22-.65.58.04.32.47.32.68.11Z"/>
</svg>