<?xml version="1.0" encoding="UTF-8"?>
<svg id="Layer_1" xmlns="http://www.w3.org/2000/svg" version="1.1" viewBox="0 0 44.22 41.25">
  <!-- Generator: Adobe Illustrator 30.3.0, SVG Export Plug-In . SVG Version: 2.1.3 Build 182)  -->
  <defs>
    <style>
      .st0 {
        fill: #c2d83f;
      }
    </style>
  </defs>
  <path class="st0" d="M14.67,37.38c-2.68-.04-5.43-.09-7.98-.6-1.37-.26-2.75-.64-3.66-1.32-2.49-1.92-1.57-4.78,1.77-6.01,1.51-.55,3.4-.6,5.17-.68,3.93-.21,7.85-.21,11.72-.13,2.03,0,12.5.38,14.46.6,1.18.13,2.42.6,3.14,1.24.79.73,1.11,1.66.98,2.56-.2,1.45-1.44,2.81-3.34,3.58-1.31.51-2.94.64-4.45.72-2.36.17-15.38.09-17.8.04ZM5.58,33.75c-.07-.13-.13-.26-.13-.38,0-.51,0-1.02.33-1.45.2-.3,1.18-.68,1.57-.77.59-.13.85-.55.39-.77-.92-.38-2.29.34-3.01.85-.72.43-.85,1.15-.85,1.79,0,.26.07.94.39,1.11.39.26,1.31,0,1.31-.38ZM9.89,30.72c.72,0,1.44-.6.85-.9-1.11-.51-2.23.9-.85.9Z"/>
  <path class="st0" d="M14.67,24.06c-2.68-.04-5.43-.09-7.98-.6-1.37-.26-2.75-.64-3.66-1.32-2.49-1.92-1.57-4.78,1.77-6.01,1.51-.55,3.4-.6,5.17-.68,3.93-.21,7.85-.21,11.72-.13,2.03,0,12.5.38,14.46.6,1.18.13,2.42.6,3.14,1.24.79.73,1.11,1.66.98,2.56-.2,1.45-1.44,2.81-3.34,3.58-1.31.51-2.94.64-4.45.72-2.36.17-15.38.09-17.8.04ZM5.58,20.44c-.07-.13-.13-.26-.13-.38,0-.51,0-1.02.33-1.45.2-.3,1.18-.68,1.57-.77.59-.13.85-.55.39-.77-.92-.38-2.29.34-3.01.85-.72.43-.85,1.15-.85,1.79,0,.26.07.94.39,1.11.39.26,1.31,0,1.31-.38ZM9.89,17.41c.72,0,1.44-.6.85-.9-1.11-.51-2.23.9-.85.9Z"/>
  <path class="st0" d="M14.69,10.77c-2.68-.04-5.43-.07-7.99-.58-1.38-.25-2.75-.63-3.67-1.31-2.49-1.91-1.59-4.77,1.74-6.02,1.5-.56,3.4-.6,5.17-.69,3.93-.22,7.85-.23,11.71-.15,2.03,0,12.5.36,14.47.57,1.18.13,2.42.59,3.15,1.23.79.72,1.12,1.66.99,2.56-.19,1.45-1.43,2.82-3.32,3.59-1.31.51-2.94.65-4.45.73-2.36.18-15.38.12-17.8.08ZM5.58,7.16c-.07-.13-.13-.26-.13-.38,0-.51,0-1.02.32-1.45.2-.3,1.18-.68,1.57-.77.59-.13.85-.56.39-.77-.92-.38-2.29.35-3.01.86-.72.43-.85,1.15-.84,1.79,0,.26.07.94.4,1.11.39.26,1.31,0,1.31-.39ZM9.88,4.13c.72,0,1.44-.6.85-.9-1.12-.51-2.22.9-.85.9Z"/>
</svg>