<?xml version="1.0" encoding="UTF-8"?>
<svg id="Layer_1" xmlns="http://www.w3.org/2000/svg" version="1.1" viewBox="0 0 155.35 51.36">
  <!-- Generator: Adobe Illustrator 30.3.0, SVG Export Plug-In . SVG Version: 2.1.3 Build 182)  -->
  <defs>
    <style>
      .st0 {
        fill: #c2d83f;
      }
    </style>
  </defs>
  <path class="st0" d="M26.06,36.23c-.65-.61-1.04-1.48-1.33-2.34-.79-2.41-.94-5.04-1.04-7.56-1.15-.11-2.34.04-3.53.11-.04,1.37-.18,2.7-.4,4.07-.18,1.22-.4,2.45-.76,3.64-.18.61-.4,1.3-.83,1.8-.43.5-1.08.86-1.73.97-.72.11-1.55-.11-2.16-.5-.97-.58-1.76-1.58-2.09-2.66-.79-2.41-1.12-5-1.22-7.56-.83-.4-1.66-.83-2.16-1.55-.94-1.26-.07-2.92,1.26-3.78.25-.18.54-.32.86-.36.07-2.02.18-4.07.58-6.05.25-1.19.61-2.45,1.3-3.49.94-1.4,2.88-2.23,4.36-1.37.5.29.9.76,1.22,1.22.9,1.37,1.3,3.06,1.51,4.68.25,1.51.43,3.02.36,4.57.47.04,2.88-.07,3.31-.11-.04-1.66.14-3.35.43-5,.22-1.22.47-2.48,1.04-3.6.36-.68.9-1.37,1.58-1.76.68-.36,1.58-.47,2.34-.25.9.25,1.69.94,2.16,1.73.86,1.3,1.19,2.92,1.4,4.46.22,1.76.32,3.56.4,5.33.61.5,1.19,1.01,1.66,1.62.18.25.32.5.36.79,0,.43-.18.86-.4,1.26-.4.65-1.04,1.22-1.66,1.69-.11,2.48-.43,5-1.19,7.38-.32.97-.94,1.91-1.73,2.52-.54.43-1.19.76-1.87.83-.76.07-1.51-.22-2.05-.72ZM13.32,18.41c-.07-.5.04-2.74.14-3.28.11-.61.18-1.26.43-1.84.07-.18.47-.76.61-.9.54-.36-.11-.9-.58-.4-.65.65-1.01,1.58-1.19,2.48-.04.18-.25,1.15-.25,1.33-.11.83-.11,1.69-.11,2.56,0,.14,0,.29.11.4.25.32.9.04.83-.36ZM16.13,11.14c.07-.58-.79-.5-.86.04-.04.5.83.47.86-.04Z"/>
  <path class="st0" d="M40.18,36.41c-.61-.32-1.08-.9-1.48-1.48-.86-1.3-1.26-2.92-1.51-4.5-.4-2.48-.36-5.11.4-7.49.25-.79.58-1.58,1.19-2.16l.04-.04c.47-.65,1.15-1.19,1.91-1.48.86-.29,3.1-.07,3.89.36.4.22,1.33,1.19,1.51,1.58.43,1.01.72,2.09.79,3.17.11,1.84-.18,3.67-.47,5.51-.22,1.51-.47,3.06-1.08,4.46-.32.68-.68,1.4-1.26,1.84-.9.65-2.95.72-3.92.22ZM38.81,16.94c-1.19-1.08-1.44-3.1-.5-4.54.58-.86,1.4-1.58,2.38-1.98.9-.36,1.94-.4,2.92-.18.54.14,1.08.4,1.58.68.68.43,1.33,1.04,1.62,1.8.25.54.29,1.19.18,1.76-.25,1.33-1.22,2.74-2.48,3.28-1.48.61-4.46.22-5.69-.83ZM39.38,27.45v-.5c-.04-.25-.07-1.51-.04-1.8.04-.14.11-.97.18-1.12.07-.32.47-1.37.76-1.58.54-.4-.14-.97-.61-.5-.54.58-1.22,2.66-1.22,3.46,0,.29-.07,1.69,0,1.98.04.11.14.43.22.5.29.18.76-.07.72-.43ZM39.78,14.96c.11-.18,0-.4.04-.61.07-.43.36-1.4.76-1.58.54-.25.22-.86-.32-.61-.4.14-.97,1.15-1.12,1.55-.11.29-.32,1.12-.18,1.4.18.36.68.22.83-.14ZM40.86,21.47c.54-.04.65-.79.07-.76-.54.04-.61.79-.07.76ZM42.26,11.43c-.32-.4-.79-.07-.83.32-.07.68,1.12,0,.83-.32Z"/>
  <path class="st0" d="M53.93,36.63c-1.04-.18-2.12-.5-2.99-1.12-.54-.36-1.04-.9-1.22-1.51-.14-.43-.18-.86-.22-1.3-.04-1.26.29-3.38,1.44-3.85.58-.22,1.26-.25,1.87-.14.32.07,1.91.68,2.23.79.61.25,1.3.54,1.94.43.54-.14.76-.79.4-1.22-.47-.61-2.88-1.22-3.64-1.48-1.22-.36-2.34-1.19-3.02-2.27-1.84-2.81-1.3-7.45,1.19-9.65,1.01-.9,2.38-1.37,3.71-1.62,2.12-.36,4.39-.22,6.44.47,3.2,1.08,4,5.22,1.4,7.45-.36.32-.86.5-1.37.58-.83.11-1.73-.07-2.52-.36-.94-.36-2.63-.36-2.05.43.5.68,3.17,1.4,3.96,1.69.54.18,1.08.43,1.55.76,1.08.76,1.8,2.09,2.09,3.38.5,2.16-.07,4.57-1.51,6.19-.79.94-1.91,1.58-3.06,1.98-2.09.72-4.43.72-6.62.36ZM52.02,21.87c-.36-.76-.25-1.76,0-2.59.32-1.08.97-2.27,1.94-2.81.07-.04.25-.14.32-.14.47.04.79-.54.36-.72-.22-.07-.47-.04-.68.07-.86.32-1.62,1.08-2.12,1.87-.47.76-.79,1.8-.9,2.66-.11.65-.07,1.37.18,1.98.22.54,1.15.22.9-.32ZM56.37,15.53c.54-.58-.54-1.08-.83-.32-.14.43.5.68.83.32Z"/>
  <path class="st0" d="M77.36,36.52c-1.73,0-3.56-.5-4.93-1.55-1.33-1.01-2.16-2.41-2.41-4.1-.32-2.2-.22-4.43-.04-6.62-.43-.14-1.84-1.04-2.16-1.33-.4-.4-.79-.9-.9-1.48-.07-.58.14-1.15.4-1.69.4-.79,1.12-1.4,1.87-1.94.43-.32.97-.65,1.26-1.12.25-.5.25-1.08.32-1.62.14-1.01.22-2.12.68-3.06.22-.43.61-.83,1.04-1.08.54-.32,1.19-.43,1.84-.5.65-.04,1.33.04,1.94.25.58.25,1.15.65,1.44,1.19.25.43.36.94.4,1.44.07,1.08.04,2.16-.04,3.24,1.3-.07,2.59-.11,3.89.14.47.07.94.25,1.26.54,1.26,1.22,1.08,3.85.22,5.36-.36.58-1.08.97-1.76,1.15-1.01.29-2.09.11-3.13.04-.22-.04-.43-.07-.65-.11-.07.61-.07,1.22-.04,1.84.04.54.18,1.76.65,2.02.47.25,1.84-.07,2.34-.18.61-.18,1.3-.18,1.94-.07.58.11,1.19.54,1.4,1.08.61,1.4.9,3.06.54,4.54-.18.76-.65,1.51-1.26,1.98-1.73,1.26-4.03,1.62-6.12,1.66ZM72.47,16.25c-.04-.86,0-1.8.25-2.66.04-.18.25-.76.43-.86.58-.43-.25-.97-.68-.36-.54.79-.72,1.87-.79,2.88,0,.22-.11,1.04-.04,1.22.18.36.83.18.83-.22ZM74.48,11.93c.25-.11.36-.43.14-.61-.29-.18-.72.04-.76.36-.04.29.32.4.61.25Z"/>
  <path class="st0" d="M91.47,35.94c-1.84-1.08-3.24-2.99-3.96-5-.54-1.37-.76-2.88-.72-4.36.11-2.12.47-4.28,1.3-6.26.43-1.12,1.08-2.2,1.91-3.06.94-.97,2.02-1.73,3.24-2.23,1.55-.61,3.31-.83,4.97-.61,2.05.25,4,1.62,5.25,3.28.9,1.22,1.4,2.77,1.58,4.28.32,3.02.11,6.3-1.08,9.14-.61,1.58-1.62,3.06-2.84,4.18-1.01.94-2.41,1.48-3.78,1.62-1.98.22-4.17.04-5.87-.97ZM89.67,25.29c.04-.25,0-.54.04-.83.25-2.23,1.04-4.61,2.59-6.26.11-.07.36-.4.5-.4.72-.22.22-1.08-.4-.65-.68.47-1.26,1.12-1.69,1.8-.65,1.08-1.22,2.23-1.55,3.42-.11.32-.47,2.09-.5,2.45-.04.22-.14.68.07.83.36.25.86.07.94-.36ZM94.97,16.5c.58-.61-.68-.86-.86-.32-.25.65.5.68.86.32ZM97.45,27.91c.54-.76.72-1.73.79-2.66.07-1.12-.04-2.27-.43-3.31-.07-.22-.18-.43-.32-.61-.76-.94-2.12-.14-2.52,1.01-.4,1.08-.68,2.23-.79,3.35-.11.83-.11,1.73.29,2.45.68,1.08,2.27.83,2.99-.22Z"/>
  <path class="st0" d="M110.41,36.27c-.79-.61-1.37-1.51-1.76-2.45-.79-1.91-1.12-4-1.3-6.05-.25-2.74-.11-5.62.79-8.21.22-.65.5-1.3.94-1.8t.04-.07c.43-.72,1.08-1.33,1.83-1.69.94-.47,3.1-.22,4,.36.32.25,1.22,1.33,1.4,1.69.14.25.18.5.29.79.65-.58,1.33-1.04,2.09-1.44,1.19-.65,2.81-.79,4.03-.25.97.43,1.8,1.3,2.2,2.3.32.76.36,1.62.32,2.45-.07.79-.22,1.62-.58,2.34-.22.47-.54.9-.97,1.19-.32.22-.76.32-1.15.29-1.12-.07-2.23-.54-3.31-.4-.76.11-1.4.79-1.8,1.44-.11.18-.61,1.01-.61,1.26-.29,2.23-.94,7.38-2.95,8.39-.86.47-2.74.47-3.49-.14ZM109.26,25.25c0-.22-.04-1.51,0-1.73.14-.97.25-1.94.54-2.88.22-.65.58-1.3,1.08-1.69.18-.14.43-.18.47-.4.11-.5-.61-.54-1.04-.22-.43.32-.79.76-1.04,1.22-.18.36-.61,1.94-.68,2.3-.04.18-.14,1.15-.18,1.33-.18.61.04,1.3-.18,1.87-.07.14.04.36.14.5.25.29.86.07.9-.32ZM112.82,18.05c.22-.22.25-.58-.04-.68-.36-.14-.72.22-.65.58.04.32.47.32.68.11Z"/>
  <path class="st0" d="M135.68,43.36c-1.08-.25-2.16-.68-3.06-1.4-2.3-1.84-2.23-5.65.65-6.37,1.51-.4,3.17.32,4.68,0,.4-.11.79-.25,1.08-.54.5-.58.68-1.37.86-2.12-.9.68-1.94,1.19-3.06,1.4-2.7.61-5.69-.29-7.67-2.2-.79-.83-1.44-1.84-1.8-2.88-.72-2.05-.68-4.36-.29-6.44.22-1.26.61-2.52,1.19-3.67.58-1.04,1.48-2.02,2.56-2.56,1.69-.83,3.82-.5,4.54,1.22.36.79.25,1.73.18,2.59-.14,1.04-.32,2.12-.43,3.17-.07.79-.11,1.62.07,2.41.11.61.32,1.26.72,1.69,1.19,1.33,2.84-.5,3.53-2.16.25-.65.47-3.82.54-4.54.11-1.12.36-2.3.94-3.24.36-.61.94-1.19,1.58-1.44.72-.25,1.55-.22,2.27,0,.83.29,1.55.94,2.05,1.69,1.22,1.76,1.44,4.14,1.51,6.3.14,3.42.04,6.91-.76,10.22-.47,1.91-1.22,3.82-2.38,5.4-1.01,1.33-2.41,2.52-4,3.1-1.73.61-3.71.72-5.51.36ZM129.42,25.9c-.29-.58-.29-2.59-.14-3.24.22-.97.54-1.91,1.01-2.81.07-.11.32-.43.29-.58-.04-.4-.65-.29-.86.07-.58,1.01-.97,2.16-1.26,3.28-.11.4-.25,1.87-.14,2.23.07.36.07,1.37.36,1.58.36.22.9-.18.76-.54ZM131.51,18.52c.5-.25.25-.79-.29-.65-.68.18-.32.94.29.65Z"/>
</svg>