<?xml version="1.0" encoding="UTF-8"?>
<svg id="Layer_1" xmlns="http://www.w3.org/2000/svg" version="1.1" viewBox="0 0 44.22 41.25">
  <!-- Generator: Adobe Illustrator 30.3.0, SVG Export Plug-In . SVG Version: 2.1.3 Build 182)  -->
  <defs>
    <style>
      .st0 {
        fill: #c2d83f;
      }
    </style>
  </defs>
  <g>
    <path class="st0" d="M-392.83,258.16c-1.04-.07-2.12-.14-3.06-.61-.9-.4-1.58-1.22-2.02-2.12-.68-1.4-.94-2.99-1.08-4.54-.25-2.48-.43-4.97-.32-7.45.04-1.12.22-4.5.94-5.36-.61.11-1.3.36-1.91.14-.54-.22-.86-.79-1.12-1.33-.43-.94-.58-3.42-.11-4.36.4-.72,1.3-1.08,2.09-1.26,1.3-.32,2.59-.58,3.89-.76,2.3-.29,4.68-.36,6.98-.25,1.37.04,2.74.07,4.1.32,1.4.25,2.84.68,4,1.51.9.68,1.62,1.66,1.94,2.7.4,1.33.29,2.88-.25,4.14-.47,1.01-1.33,1.8-2.23,2.48.79.25,1.55.61,2.23,1.12.72.5,1.33,1.26,1.76,2.05.94,1.76,1.12,4.1.47,5.98-.5,1.4-1.33,2.7-2.38,3.78-.97,1.01-2.2,1.8-3.42,2.45-1.94,1.01-4.21,1.4-6.41,1.44-.54,0-3.56-.04-4.1-.07ZM-399.34,236.02c0-.11-.07-.72-.07-.83v-.97c0-.18.22-.32.29-.5.14-.25.5-.36.79-.47.68-.22,1.44-.32,2.16-.4.14,0,.76,0,.86-.04.25-.07.5-.32.47-.58-.07-.36-.61-.32-.97-.32-.72.07-1.4.18-2.05.32-.61.18-1.22.36-1.69.72-.22.14-.65.79-.72,1.01-.14.4-.04,1.8.04,2.2.11.5.83.36.9-.14ZM-393.4,232.68c.54-.04.61-.79.07-.76-.58.04-.65.79-.07.76ZM-390.45,240.63c.72-.04,1.44-.18,2.09-.5.14-.04.5-.25.58-.36.18-.25.18-.9,0-1.19-.29-.5-.97-.79-1.58-.79-.29,0-1.12.04-1.33.22-.18.14-.25.43-.29.65-.07.65-.04,1.3-.04,1.91.18,0,.4.07.58.07ZM-390.27,250.13c.76-.07,1.51,0,2.27-.11.9-.11,2.41-.68,2.59-1.58.14-.47-.14-1.4-.5-1.76-.22-.18-.47-.25-.72-.32-.79-.22-2.77-.4-3.42.07-.32.25-.32,1.22-.32,1.62,0,.32.04,1.8.11,2.09Z"/>
    <path class="st0" d="M-369.57,257.3c-1.08-.43-2.09-1.22-2.81-2.16-1.04-1.3-1.66-3.02-1.8-4.68-.22-2.45.07-5.04.97-7.34.43-1.15,1.01-2.23,1.8-3.2,2.2-2.7,5.94-3.92,9.32-3.1,1.37.36,2.74,1.08,3.71,2.12,1.19,1.26,1.8,3.06,2.02,4.75.36,2.56.04,5.18-.18,7.78-.11,1.19-.29,2.38-.65,3.49-.22.61-.43,1.19-.79,1.69-.5.65-1.3,1.04-2.09.97-1.04-.07-2.05-.94-2.59-1.84-.86.9-2.05,1.62-3.28,1.87-1.19.25-2.52.11-3.64-.36ZM-371.05,244.84c0-.22.29-1.15.36-1.37.14-.43.68-1.94,1.04-2.27.25-.22.47-.5.68-.76.14-.18.94-.68,1.15-.79.76.07.72-.97,0-.76-.36.07-1.44.68-1.69.94-.22.18-.36.47-.58.68-.18.18-.4.32-.5.58-.4.61-1.4,3.13-1.48,3.85-.07.61,1.01.54,1.01-.11ZM-363.99,249.31c.29-.18.54-.43.76-.72.54-.76.97-1.69.94-2.63-.07-1.44-1.3-2.63-2.7-2.23-1.19.29-2.23,1.94-2.27,3.17-.07,1.84,1.69,3.35,3.28,2.41ZM-365.68,238.04c-.47,0-.68.58-.29.76.72.29,1.04-.83.29-.76Z"/>
    <path class="st0" d="M-346.32,257.91c-.54.36-1.19.68-1.84.72-.58.04-1.19-.18-1.66-.5-.76-.5-1.33-1.33-1.8-2.16-.86-1.62-1.37-3.46-1.62-5.29-.68-5.18-.72-10.62.58-15.66.65-2.41,2.45-5.11,4.9-4.61.72.11,1.4.54,1.91,1.08.54.61.83,1.4,1.01,2.2.25,1.44.14,2.95.04,4.43,1.48-.83,3.28-1.58,4.93-1.22.97.22,1.91.68,2.66,1.3,1.12.86,1.98,2.12,2.52,3.46,1.4,3.28,1.48,7.38.14,10.73-.58,1.51-1.58,2.95-2.77,4.07-.76.76-1.66,1.37-2.59,1.76-1.98.83-4.5.65-6.41-.29ZM-351.1,239.48c.04-.11-.04-.61-.04-.72.04-.79.14-1.58.29-2.38.07-.47.58-2.09.86-2.45.04-.07.14-.25.22-.29.76-.18.25-1.04-.36-.61-.68.47-1.4,2.59-1.55,3.42-.14.94-.29,1.91-.29,2.88-.18.5.68.65.86.14ZM-347.94,232.28c.36-.25.11-.72-.29-.61-.86.22-.43,1.12.29.61ZM-342,250.28c.54-.43.86-1.12,1.01-1.8.32-1.55.14-4.1-1.26-4.86-.47-.25-.97-.22-1.44.07-1.4.83-1.66,3.53-1.26,5.11.36,1.4,1.84,2.38,2.95,1.48Z"/>
    <path class="st0" d="M-325.47,257.98c-1.37-.4-2.66-1.19-3.67-2.23-1.04-1.12-1.76-2.59-2.16-4.07-.65-2.56-.54-5.36.11-7.92.58-2.2,1.84-4.18,3.64-5.54,1.44-1.15,3.31-1.87,5.15-1.98,1.69-.07,3.46.4,4.9,1.26.79.47,1.55,1.04,2.05,1.8.76,1.19,1.04,2.7.97,4.1-.11,1.73-.83,3.64-2.16,4.72-.54.47-1.19.76-1.87.94-1.12.29-2.3.5-3.49.43-.79-.04-1.62-.18-2.34-.58.07.5.25,1.04.65,1.4.43.4,1.12.5,1.73.47,1.26-.04,2.45-.47,3.71-.65.5-.11,1.08-.14,1.55.04,1.66.65,1.98,2.95,1.51,4.64-.22.65-.72,1.22-1.26,1.66-.79.65-1.76,1.19-2.77,1.44-2.02.54-4.25.68-6.23.07ZM-328.53,243.08c.18-.5.32-1.04.61-1.51.29-.43,1.4-1.8,1.87-2.05.11-.04.22-.11.32-.22.14-.11.32-.18.5-.25.04,0,.22-.11.25-.07.4.07.79-.43.43-.68-.14-.11-.58-.04-.76.04-.32.14-.68.29-.97.5-.07.07-.47.32-.54.36-.22.14-1.12,1.12-1.3,1.33-.36.43-1.26,1.94-1.3,2.52-.04.5.68.47.86.04ZM-322.48,237.39c-.43-.29-1.04.29-.61.58.43.32,1.04-.29.61-.58ZM-321.19,245.02c.61-.18,1.12-.68,1.44-1.26.61-1.12-.79-2.2-1.87-1.55-.58.36-1.22.86-1.44,1.51-.29,1.01.86,1.58,1.87,1.3Z"/>
    <path class="st0" d="M-307.83,258.16c-1.04-.18-2.12-.5-2.99-1.12-.54-.36-1.04-.9-1.22-1.51-.14-.43-.18-.86-.22-1.3-.04-1.26.29-3.38,1.44-3.85.58-.22,1.26-.25,1.87-.14.32.07,1.91.68,2.23.79.61.25,1.3.54,1.94.43.54-.14.76-.79.4-1.22-.47-.61-2.88-1.22-3.64-1.48-1.22-.36-2.34-1.19-3.02-2.27-1.84-2.81-1.3-7.45,1.19-9.65,1.01-.9,2.38-1.37,3.71-1.62,2.12-.36,4.39-.22,6.44.47,3.2,1.08,4,5.22,1.4,7.45-.36.32-.86.5-1.37.58-.83.11-1.73-.07-2.52-.36-.94-.36-2.63-.36-2.05.43.5.68,3.17,1.4,3.96,1.69.54.18,1.08.43,1.55.76,1.08.76,1.8,2.09,2.09,3.38.5,2.16-.07,4.57-1.51,6.19-.79.94-1.91,1.58-3.06,1.98-2.09.72-4.43.72-6.62.36ZM-309.74,243.4c-.36-.76-.25-1.76,0-2.59.32-1.08.97-2.27,1.94-2.81.07-.04.25-.14.32-.14.47.04.79-.54.36-.72-.22-.07-.47-.04-.68.07-.86.32-1.62,1.08-2.12,1.87-.47.76-.79,1.8-.9,2.66-.11.65-.07,1.37.18,1.98.22.54,1.15.22.9-.32ZM-305.38,237.07c.54-.58-.54-1.08-.83-.32-.14.43.5.68.83.32Z"/>
    <path class="st0" d="M-281.84,257.95c-.61-.32-1.08-.9-1.48-1.48-.86-1.3-1.26-2.92-1.51-4.5-.4-2.48-.36-5.11.4-7.49.25-.79.58-1.58,1.19-2.16l.04-.04c.47-.65,1.15-1.19,1.91-1.48.86-.29,3.1-.07,3.89.36.4.22,1.33,1.19,1.51,1.58.43,1.01.72,2.09.79,3.17.11,1.84-.18,3.67-.47,5.51-.22,1.51-.47,3.06-1.08,4.46-.32.68-.68,1.4-1.26,1.84-.9.65-2.95.72-3.92.22ZM-283.21,238.47c-1.19-1.08-1.44-3.1-.5-4.54.58-.86,1.4-1.58,2.38-1.98.9-.36,1.94-.4,2.92-.18.54.14,1.08.4,1.58.68.68.43,1.33,1.04,1.62,1.8.25.54.29,1.19.18,1.76-.25,1.33-1.22,2.74-2.48,3.28-1.48.61-4.46.22-5.69-.83ZM-282.63,248.98v-.5c-.04-.25-.07-1.51-.04-1.8.04-.14.11-.97.18-1.12.07-.32.47-1.37.76-1.58.54-.4-.14-.97-.61-.5-.54.58-1.22,2.66-1.22,3.46,0,.29-.07,1.69,0,1.98.04.11.14.43.22.5.29.18.76-.07.72-.43ZM-282.24,236.49c.11-.18,0-.4.04-.61.07-.43.36-1.4.76-1.58.54-.25.22-.86-.32-.61-.4.14-.97,1.15-1.12,1.55-.11.29-.32,1.12-.18,1.4.18.36.68.22.83-.14ZM-281.16,243.01c.54-.04.65-.79.07-.76-.54.04-.61.79-.07.76ZM-279.75,232.96c-.32-.4-.79-.07-.83.32-.07.68,1.12,0,.83-.32Z"/>
    <path class="st0" d="M-260.06,257.19c-.5-.68-.76-1.58-.86-2.41-.29-2.48.11-5-.07-7.45-.04-.94-.14-1.91-.61-2.7-.11-.22-.32-.47-.58-.61-.72-.4-1.26.58-1.48,1.37-.18.72-.22,1.44-.25,2.16-.11,2.27.11,4.54-.14,6.8-.07.9-.22,1.84-.65,2.59-1.04,1.84-3.56,1.76-4.97.22-.9-1.01-1.3-2.38-1.66-3.64-1.12-4.25-1.62-8.85-.72-13.1.29-1.3.61-2.74,1.55-3.71,1.83-1.87,4.97-1.01,6.12,1.4,1.08-.94,2.38-1.76,3.78-1.98.9-.14,1.84-.07,2.66.29.94.36,1.73,1.04,2.34,1.84.86,1.04,1.44,2.3,1.76,3.6.54,2.05.61,4.21.58,6.33,0,2.66-.22,5.47-1.3,7.92-.32.79-.97,1.55-1.73,1.94-1.33.65-2.88.29-3.78-.86ZM-270.14,246.53c.07-.18-.04-.86-.07-1.08-.18-1.22-.04-2.48.11-3.74.07-.54.43-1.94.9-2.27.29-.22.18-.65-.22-.61-.29,0-.68.5-.83.79-.18.32-.61,1.76-.65,2.16-.18,1.33-.36,2.7-.18,4.03.04.18.04.79.18.9.18.25.65.14.76-.18ZM-268.02,237.97c.68-.18.54-1.01-.14-.83-.65.14-.5,1.01.14.83Z"/>
    <path class="st0" d="M-233.39,258.16c-1.04-.07-2.12-.14-3.06-.61-.9-.4-1.58-1.22-2.02-2.12-.68-1.4-.94-2.99-1.08-4.54-.25-2.48-.43-4.97-.32-7.45.04-1.12.22-4.5.94-5.36-.61.11-1.3.36-1.91.14-.54-.22-.86-.79-1.12-1.33-.43-.94-.58-3.42-.11-4.36.4-.72,1.3-1.08,2.09-1.26,1.3-.32,2.59-.58,3.89-.76,2.3-.29,4.68-.36,6.98-.25,1.37.04,2.74.07,4.1.32,1.4.25,2.84.68,4,1.51.9.68,1.62,1.66,1.94,2.7.4,1.33.29,2.88-.25,4.14-.47,1.01-1.33,1.8-2.23,2.48.79.25,1.55.61,2.23,1.12.72.5,1.33,1.26,1.76,2.05.94,1.76,1.12,4.1.47,5.98-.5,1.4-1.33,2.7-2.38,3.78-.97,1.01-2.2,1.8-3.42,2.45-1.94,1.01-4.21,1.4-6.41,1.44-.54,0-3.56-.04-4.1-.07ZM-239.9,236.02c0-.11-.07-.72-.07-.83v-.97c0-.18.22-.32.29-.5.14-.25.5-.36.79-.47.68-.22,1.44-.32,2.16-.4.14,0,.76,0,.86-.04.25-.07.5-.32.47-.58-.07-.36-.61-.32-.97-.32-.72.07-1.4.18-2.05.32-.61.18-1.22.36-1.69.72-.22.14-.65.79-.72,1.01-.14.4-.04,1.8.04,2.2.11.5.83.36.9-.14ZM-233.96,232.68c.54-.04.61-.79.07-.76-.58.04-.65.79-.07.76ZM-231.01,240.63c.72-.04,1.44-.18,2.09-.5.14-.04.5-.25.58-.36.18-.25.18-.9,0-1.19-.29-.5-.97-.79-1.58-.79-.29,0-1.12.04-1.33.22-.18.14-.25.43-.29.65-.07.65-.04,1.3-.04,1.91.18,0,.4.07.58.07ZM-230.83,250.13c.76-.07,1.51,0,2.27-.11.9-.11,2.41-.68,2.59-1.58.14-.47-.14-1.4-.5-1.76-.22-.18-.47-.25-.72-.32-.79-.22-2.77-.4-3.42.07-.32.25-.32,1.22-.32,1.62,0,.32.04,1.8.11,2.09Z"/>
    <path class="st0" d="M-211.25,257.95c-.61-.32-1.08-.9-1.48-1.48-.86-1.3-1.26-2.92-1.51-4.5-.4-2.48-.36-5.11.4-7.49.25-.79.58-1.58,1.19-2.16l.04-.04c.47-.65,1.15-1.19,1.91-1.48.86-.29,3.1-.07,3.89.36.4.22,1.33,1.19,1.51,1.58.43,1.01.72,2.09.79,3.17.11,1.84-.18,3.67-.47,5.51-.22,1.51-.47,3.06-1.08,4.46-.32.68-.68,1.4-1.26,1.84-.9.65-2.95.72-3.92.22ZM-212.61,238.47c-1.19-1.08-1.44-3.1-.5-4.54.58-.86,1.4-1.58,2.38-1.98.9-.36,1.94-.4,2.92-.18.54.14,1.08.4,1.58.68.68.43,1.33,1.04,1.62,1.8.25.54.29,1.19.18,1.76-.25,1.33-1.22,2.74-2.48,3.28-1.48.61-4.46.22-5.69-.83ZM-212.04,248.98v-.5c-.04-.25-.07-1.51-.04-1.8.04-.14.11-.97.18-1.12.07-.32.47-1.37.76-1.58.54-.4-.14-.97-.61-.5-.54.58-1.22,2.66-1.22,3.46,0,.29-.07,1.69,0,1.98.04.11.14.43.22.5.29.18.76-.07.72-.43ZM-211.64,236.49c.11-.18,0-.4.04-.61.07-.43.36-1.4.76-1.58.54-.25.22-.86-.32-.61-.4.14-.97,1.15-1.12,1.55-.11.29-.32,1.12-.18,1.4.18.36.68.22.83-.14ZM-210.56,243.01c.54-.04.65-.79.07-.76-.54.04-.61.79-.07.76ZM-209.16,232.96c-.32-.4-.79-.07-.83.32-.07.68,1.12,0,.83-.32Z"/>
    <path class="st0" d="M-185.22,258.02c-.83-.11-1.58-.47-2.3-.86-2.02-1.22-3.78-2.88-5.33-4.64-.14,1.51-.4,3.2-1.4,4.39-.5.58-1.37.9-2.16.86-.86,0-1.76-.32-2.41-.9-.36-.32-.65-.76-.83-1.19-.5-1.26-.83-2.59-1.08-3.92-.58-3.24-.83-6.55-.83-9.86,0-2.66.07-5.36.68-7.95.25-1.22.94-2.3,1.91-3.06.61-.47,1.33-.79,2.09-.9,2.52-.4,4.39,1.8,4.61,4.32.07.94,0,5.98-.04,6.88,1.22-1.48,2.63-2.88,4.28-3.82.83-.47,1.73-.79,2.66-.79,2.45-.04,4.39,2.02,4.17,4.46-.07.83-.36,1.62-.83,2.34-.54.83-1.33,1.51-2.12,2.12-.94.72-1.98,1.37-3.02,1.98,1.12,1.04,2.23,2.12,3.17,3.35.61.86,1.19,1.84,1.4,2.92.29,1.33.07,3.46-1.15,4.07-.47.22-1.01.25-1.48.22ZM-199.04,240.81c0-.14-.14-.94-.14-1.12-.04-1.48-.04-3.02.32-4.43.07-.4.58-1.33.86-1.55.58-.4.04-1.01-.47-.5-.07.07-.14.14-.22.22-.68.79-1.04,1.84-1.26,2.84-.11.61-.22,3.2-.14,3.78.04.29,0,.97.22,1.12.29.18.76,0,.83-.36ZM-196.63,232.39c.25-.04.58-.32.54-.58-.07-.4-.68-.32-.9,0-.18.25.04.61.36.58Z"/>
    <path class="st0" d="M-173.19,257.98c-1.37-.4-2.66-1.19-3.67-2.23-1.04-1.12-1.76-2.59-2.16-4.07-.65-2.56-.54-5.36.11-7.92.58-2.2,1.84-4.18,3.64-5.54,1.44-1.15,3.31-1.87,5.15-1.98,1.69-.07,3.46.4,4.9,1.26.79.47,1.55,1.04,2.05,1.8.76,1.19,1.04,2.7.97,4.1-.11,1.73-.83,3.64-2.16,4.72-.54.47-1.19.76-1.87.94-1.12.29-2.3.5-3.49.43-.79-.04-1.62-.18-2.34-.58.07.5.25,1.04.65,1.4.43.4,1.12.5,1.73.47,1.26-.04,2.45-.47,3.71-.65.5-.11,1.08-.14,1.55.04,1.66.65,1.98,2.95,1.51,4.64-.22.65-.72,1.22-1.26,1.66-.79.65-1.76,1.19-2.77,1.44-2.02.54-4.25.68-6.23.07ZM-176.25,243.08c.18-.5.32-1.04.61-1.51.29-.43,1.4-1.8,1.87-2.05.11-.04.22-.11.32-.22.14-.11.32-.18.5-.25.04,0,.22-.11.25-.07.4.07.79-.43.43-.68-.14-.11-.58-.04-.76.04-.32.14-.68.29-.97.5-.07.07-.47.32-.54.36-.22.14-1.12,1.12-1.3,1.33-.36.43-1.26,1.94-1.3,2.52-.04.5.68.47.86.04ZM-170.21,237.39c-.43-.29-1.04.29-.61.58.43.32,1.04-.29.61-.58ZM-168.91,245.02c.61-.18,1.12-.68,1.44-1.26.61-1.12-.79-2.2-1.87-1.55-.58.36-1.22.86-1.44,1.51-.29,1.01.86,1.58,1.87,1.3Z"/>
    <path class="st0" d="M-156.89,257.44c-.36-.32-.65-.72-.83-1.15-.54-1.33-.86-2.77-1.12-4.18-.54-3.1-.79-6.26-.79-9.43,0-2.7.11-5.44.65-8.1.18-.83.54-1.66,1.08-2.34,1.58-1.91,4.46-2.38,6.19-.58.72.76,1.15,1.8,1.3,2.84.47,2.56-.25,14.83-.4,17.39-.07,1.19-.18,2.34-.5,3.46-.22.83-.54,1.66-1.15,2.27-1.12,1.19-3.17.86-4.43-.18ZM-157.42,240.09c0-.11-.04-.68-.04-.79.04-1.51.04-3.13.72-4.46.11-.22.5-.9.72-1.01.25-.11.4-.43.14-.61-.32-.22-.72.18-1.01.5-.54.61-.86,1.44-1.12,2.23-.18.58-.32,1.15-.4,1.76-.07.36-.11,1.98-.07,2.38.11.54.97.54,1.04,0ZM-154.55,232.32c-.32-.22-.86,0-.79.47.11.5,1.37-.07.79-.47Z"/>
    <path class="st0" d="M-143.06,257.3c-1.08-.43-2.09-1.22-2.81-2.16-1.04-1.3-1.66-3.02-1.8-4.68-.22-2.45.07-5.04.97-7.34.43-1.15,1.01-2.23,1.8-3.2,2.2-2.7,5.94-3.92,9.32-3.1,1.37.36,2.74,1.08,3.71,2.12,1.19,1.26,1.8,3.06,2.02,4.75.36,2.56.04,5.18-.18,7.78-.11,1.19-.29,2.38-.65,3.49-.22.61-.43,1.19-.79,1.69-.5.65-1.3,1.04-2.09.97-1.04-.07-2.05-.94-2.59-1.84-.86.9-2.05,1.62-3.28,1.87-1.19.25-2.52.11-3.64-.36ZM-144.54,244.84c0-.22.29-1.15.36-1.37.14-.43.68-1.94,1.04-2.27.25-.22.47-.5.68-.76.14-.18.94-.68,1.15-.79.76.07.72-.97,0-.76-.36.07-1.44.68-1.69.94-.22.18-.36.47-.58.68-.18.18-.4.32-.5.58-.4.61-1.4,3.13-1.48,3.85-.07.61,1.01.54,1.01-.11ZM-137.48,249.31c.29-.18.54-.43.76-.72.54-.76.97-1.69.94-2.63-.07-1.44-1.3-2.63-2.7-2.23-1.19.29-2.23,1.94-2.27,3.17-.07,1.84,1.69,3.35,3.28,2.41ZM-139.17,238.04c-.47,0-.68.58-.29.76.72.29,1.04-.83.29-.76Z"/>
    <path class="st0" d="M-114.98,257.19c-.5-.68-.76-1.58-.86-2.41-.29-2.48.11-5-.07-7.45-.04-.94-.14-1.91-.61-2.7-.11-.22-.32-.47-.58-.61-.72-.4-1.26.58-1.48,1.37-.18.72-.22,1.44-.25,2.16-.11,2.27.11,4.54-.14,6.8-.07.9-.22,1.84-.65,2.59-1.04,1.84-3.56,1.76-4.97.22-.9-1.01-1.3-2.38-1.66-3.64-1.12-4.25-1.62-8.85-.72-13.1.29-1.3.61-2.74,1.55-3.71,1.83-1.87,4.97-1.01,6.12,1.4,1.08-.94,2.38-1.76,3.78-1.98.9-.14,1.84-.07,2.66.29.94.36,1.73,1.04,2.34,1.84.86,1.04,1.44,2.3,1.76,3.6.54,2.05.61,4.21.58,6.33,0,2.66-.22,5.47-1.3,7.92-.32.79-.97,1.55-1.73,1.94-1.33.65-2.88.29-3.78-.86ZM-125.06,246.53c.07-.18-.04-.86-.07-1.08-.18-1.22-.04-2.48.11-3.74.07-.54.43-1.94.9-2.27.29-.22.18-.65-.22-.61-.29,0-.68.5-.83.79-.18.32-.61,1.76-.65,2.16-.18,1.33-.36,2.7-.18,4.03.04.18.04.79.18.9.18.25.65.14.76-.18ZM-122.94,237.97c.68-.18.54-1.01-.14-.83-.65.14-.5,1.01.14.83Z"/>
    <path class="st0" d="M-99.61,258.27c-2.02-.79-3.71-2.59-4.82-4.46-.76-1.33-1.22-2.84-1.44-4.36-.43-2.84-.07-5.94,1.22-8.49.68-1.33,1.69-2.56,2.95-3.31.68-.4,1.4-.68,2.16-.79,1.62-.22,3.28.5,4.68,1.26-.11-1.44.11-2.95.65-4.32.32-.72.76-1.44,1.33-1.98,1.4-1.37,4-1.62,5.54-.4.54.43.94,1.04,1.15,1.66.18.65.18,1.33.07,1.98-.43,2.81-.58,5.69-.65,8.53-.04,3.35.07,6.7.29,10.01.07.9.11,1.87-.18,2.74-.18.58-.54,1.12-1.01,1.48-.58.5-1.37.76-2.12.83-1.22.11-2.48-.18-3.56-.72-1.87.9-4.32,1.12-6.26.36ZM-102.67,244.34c0-.65.11-1.33.36-1.94.11-.36.76-1.73,1.01-2.02.36-.36.79-.72,1.26-.9.11-.04.22-.11.32-.07.54.07.76-.58.25-.76-.4-.14-1.26.25-1.62.5-.47.29-.9.65-1.19,1.12-.54.86-.94,1.84-1.19,2.81-.04.11-.22.61-.22.72,0,.18-.04.76.11.94.29.29.9.04.9-.4ZM-94.68,248.69c.36-1.51.04-4.14-1.26-5-.36-.22-.83-.29-1.22-.18-1.55.54-1.8,2.99-1.55,4.61.11.86.5,1.91,1.3,2.3,1.19.65,2.41-.4,2.74-1.73ZM-97.34,238.83c.47-.32.11-.9-.4-.68-.9.43-.4,1.26.4.68Z"/>
  </g>
  <g>
    <path class="st0" d="M-288.03,21.42c-1.69-.11-3.42-.5-4.86-1.37-.68-.4-1.3-.9-1.73-1.55-.61-.86-.94-1.87-1.22-2.88-.43-1.51-.68-3.06-.76-4.61-.14-3.74-.32-7.52.58-11.16.29-1.33.79-2.66,1.66-3.71.47-.61,1.12-1.12,1.84-1.44,2.02-.86,4.28-1.19,6.44-1.19,2.23-.04,4.54.29,6.55,1.3,2.88,1.4,2.45,5.47-.61,6.48-1.4.47-2.95.11-4.46.11-.65-.04-1.37,0-1.94.32-.29.18-.5.54-.54.9-.07.36-.11.97.25,1.08.25.11,1.3.07,1.55.07,1.37-.04,2.74-.14,4.07.11.72.14,1.51.43,2.02,1.01.72.86.58,2.92.07,3.92-.29.5-.79.9-1.33,1.12-1.62.61-3.46.07-5.18.04-.65,0-1.37,0-1.87.4-.47.36-.65,1.4-.5,1.94.29,1.3,2.09,1.04,3.38.83.94-.18,4.25-.61,5.15-.32,1.22.43,1.98,2.3,1.94,3.6,0,.5-.14,1.08-.47,1.48-.5.72-1.22,1.3-1.98,1.76-2.34,1.44-5.29,1.94-8.03,1.76ZM-294.11,3.14v-1.19c.04-.54.43-2.77.65-3.28.07-.22.22-.4.32-.61.43-.83,1.26-1.48,2.12-1.87.25-.14.36-.47.14-.61-.36-.25-1.08.11-1.44.32-.68.47-1.37,1.08-1.69,1.84-.07.11-.4.72-.43.83-.22.58-.61,3.1-.61,3.74-.04.32-.11,1.04.14,1.22.29.18.76-.04.79-.4ZM-289.43-5.14c-.54-.11-.79.43-.4.72.54.36,1.01-.65.4-.72Z"/>
    <path class="st0" d="M-267.98,20.45c-.79-.68-1.4-1.55-1.98-2.41-1.55-2.27-2.77-4.72-3.78-7.24-.83-2.09-1.55-4.21-1.87-6.44-.14-.94-.04-1.94.4-2.77,1.4-2.59,5-2.95,6.77-.61.72.94.68,2.23,1.01,3.31.29.83,1.4,6.16,1.69,6.98.29-.83,1.26-5.83,1.48-6.7.11-.43.83-2.52,1.01-2.92,1.51-3.24,6.08-2.59,7.24.76.32.94.18,1.98-.04,2.95-.4,1.94-1.04,3.82-1.8,5.65-.83,1.98-1.8,3.92-2.88,5.72-.68,1.12-1.4,2.2-2.27,3.13-.43.47-.9.9-1.48,1.12-1.08.47-2.59.22-3.49-.54ZM-272.12,9.54c.14-.22-.14-.83-.25-1.12-.04-.11-.07-.25-.11-.4-.04-.18-.4-1.08-.43-1.22-.32-1.04-.54-2.16-.5-3.24,0-.14,0-.54.11-.65.32-.36-.18-.76-.58-.47-.22.18-.36.79-.4,1.08-.04.65,0,1.3.11,1.94.07.25.32,1.44.4,1.66.11.29.72,2.02.83,2.3.11.4.58.47.83.11ZM-272.26,1.37c.07-.54-.83-.4-.9.14-.04.5.86.4.9-.14Z"/>
    <path class="st0" d="M-248,20.99c-1.37-.4-2.66-1.19-3.67-2.23-1.04-1.12-1.76-2.59-2.16-4.07-.65-2.56-.54-5.36.11-7.92.58-2.2,1.84-4.18,3.64-5.54,1.44-1.15,3.31-1.87,5.15-1.98,1.69-.07,3.46.4,4.9,1.26.79.47,1.55,1.04,2.05,1.8.76,1.19,1.04,2.7.97,4.1-.11,1.73-.83,3.64-2.16,4.72-.54.47-1.19.76-1.87.94-1.12.29-2.3.5-3.49.43-.79-.04-1.62-.18-2.34-.58.07.5.25,1.04.65,1.4.43.4,1.12.5,1.73.47,1.26-.04,2.45-.47,3.71-.65.5-.11,1.08-.14,1.55.04,1.66.65,1.98,2.95,1.51,4.64-.22.65-.72,1.22-1.26,1.66-.79.65-1.76,1.19-2.77,1.44-2.02.54-4.25.68-6.23.07ZM-251.06,6.09c.18-.5.32-1.04.61-1.51.29-.43,1.4-1.8,1.87-2.05.11-.04.22-.11.32-.22.14-.11.32-.18.5-.25.04,0,.22-.11.25-.07.4.07.79-.43.43-.68-.14-.11-.58-.04-.76.04-.32.14-.68.29-.97.5-.07.07-.47.32-.54.36-.22.14-1.12,1.12-1.3,1.33-.36.43-1.26,1.94-1.3,2.52-.04.5.68.47.86.04ZM-245.01.4c-.43-.29-1.04.29-.61.58.43.32,1.04-.29.61-.58ZM-243.72,8.03c.61-.18,1.12-.68,1.44-1.26.61-1.12-.79-2.2-1.87-1.55-.58.36-1.22.86-1.44,1.51-.29,1.01.86,1.58,1.87,1.3Z"/>
    <path class="st0" d="M-222.33,20.2c-.5-.68-.76-1.58-.86-2.41-.29-2.48.11-5-.07-7.45-.04-.94-.14-1.91-.61-2.7-.11-.22-.32-.47-.58-.61-.72-.4-1.26.58-1.48,1.37-.18.72-.22,1.44-.25,2.16-.11,2.27.11,4.54-.14,6.8-.07.9-.22,1.84-.65,2.59-1.04,1.84-3.56,1.76-4.97.22-.9-1.01-1.3-2.38-1.66-3.64-1.12-4.25-1.62-8.85-.72-13.1.29-1.3.61-2.74,1.55-3.71,1.83-1.87,4.97-1.01,6.12,1.4,1.08-.94,2.38-1.76,3.78-1.98.9-.14,1.84-.07,2.66.29.94.36,1.73,1.04,2.34,1.84.86,1.04,1.44,2.3,1.76,3.6.54,2.05.61,4.21.58,6.33,0,2.66-.22,5.47-1.3,7.92-.32.79-.97,1.55-1.73,1.94-1.33.65-2.88.29-3.78-.86ZM-232.41,9.54c.07-.18-.04-.86-.07-1.08-.18-1.22-.04-2.48.11-3.74.07-.54.43-1.94.9-2.27.29-.22.18-.65-.22-.61-.29,0-.68.5-.83.79-.18.32-.61,1.76-.65,2.16-.18,1.33-.36,2.7-.18,4.03.04.18.04.79.18.9.18.25.65.14.76-.18ZM-230.29.98c.68-.18.54-1.01-.14-.83-.65.14-.5,1.01.14.83Z"/>
    <path class="st0" d="M-203.4,21.06c-1.73,0-3.56-.5-4.93-1.55-1.33-1.01-2.16-2.41-2.41-4.1-.32-2.2-.22-4.43-.04-6.62-.43-.14-1.84-1.04-2.16-1.33-.4-.4-.79-.9-.9-1.48-.07-.58.14-1.15.4-1.69.4-.79,1.12-1.4,1.87-1.94.43-.32.97-.65,1.26-1.12.25-.5.25-1.08.32-1.62.14-1.01.22-2.12.68-3.06.22-.43.61-.83,1.04-1.08.54-.32,1.19-.43,1.84-.5.65-.04,1.33.04,1.94.25.58.25,1.15.65,1.44,1.19.25.43.36.94.4,1.44.07,1.08.04,2.16-.04,3.24,1.3-.07,2.59-.11,3.89.14.47.07.94.25,1.26.54,1.26,1.22,1.08,3.85.22,5.36-.36.58-1.08.97-1.76,1.15-1.01.29-2.09.11-3.13.04-.22-.04-.43-.07-.65-.11-.07.61-.07,1.22-.04,1.84.04.54.18,1.76.65,2.02.47.25,1.84-.07,2.34-.18.61-.18,1.3-.18,1.94-.07.58.11,1.19.54,1.4,1.08.61,1.4.9,3.06.54,4.54-.18.76-.65,1.51-1.26,1.98-1.73,1.26-4.03,1.62-6.12,1.66ZM-208.29.8c-.04-.86,0-1.8.25-2.66.04-.18.25-.76.43-.86.58-.43-.25-.97-.68-.36-.54.79-.72,1.87-.79,2.88,0,.22-.11,1.04-.04,1.22.18.36.83.18.83-.22ZM-206.27-3.52c.25-.11.36-.43.14-.61-.29-.18-.72.04-.76.36-.04.29.32.4.61.25Z"/>
  </g>
  <g>
    <path class="st0" d="M-341.4-59.05c-.76-.97-1.19-2.2-1.51-3.38-.4-1.55-.65-3.17-.72-4.79-.14-3.96-.32-8.03.65-11.91.32-1.22.76-2.52,1.55-3.56.43-.61,1.08-1.15,1.8-1.48,1.98-.94,4.25-1.3,6.44-1.3,2.27-.04,4.68.32,6.66,1.37.36.18.68.4.97.68,1.4,1.44,1.15,3.82-.29,5.22-.58.58-1.3.94-2.09,1.04-1.15.14-2.34-.07-3.53-.11-.65-.04-1.33-.04-1.94.25-.4.18-.65.5-.72.94-.07.36-.14,1.04.22,1.22.22.11,1.04.11,1.3.07,1.4,0,2.88-.14,4.28.11.76.14,1.58.43,2.09,1.04.36.47.5,1.08.47,1.69,0,.97-.07,2.09-.68,2.84-.5.65-1.4.9-2.19,1.04-1.44.18-2.92-.04-4.36.14-.58.07-1.26.22-1.66.61-.32.32-.47.83-.43,1.26.18,1.69.25,3.42.04,5.11-.14,1.08-.68,2.23-1.62,2.81-1.48.97-3.64.43-4.71-.94ZM-340.93-74.71c-.07-.47.11-2.52.18-2.99.11-.72.29-1.44.54-2.12.22-.54,1.15-1.98,1.66-2.23.25-.11.47-.29.68-.47.32,0,.61-.32.4-.61-.25-.32-.76-.07-1.12.18-.14.11-.36.18-.5.29-.29.18-.54.36-.76.61-.54.61-1.01,1.33-1.33,2.09-.14.4-.58,2.23-.61,2.63-.04.43-.11,2.41-.04,2.84.07.47,1.01.25.9-.22ZM-336-83.2c.18-.18.29-.43.07-.58-.25-.18-.76,0-.79.32-.04.4.47.54.72.25Z"/>
    <path class="st0" d="M-319.22-58.84c-1.26-.83-2.23-2.12-2.77-3.53-.76-2.02-.97-4.21-.86-6.37.11-2.81.72-5.76,2.38-8.03.47-.65,1.04-1.26,1.73-1.66,1.66-.97,3.85-.76,4.68.97.4.76.4,1.69.32,2.52-.14,1.91-.58,3.82-.58,5.72-.04.86,0,1.76.36,2.59.14.29.36.65.68.72.58.18,1.04-.54,1.29-1.12.18-.4.29-.83.43-1.26.58-2.23.65-4.57,1.22-6.77.22-.86.5-1.69,1.01-2.41.25-.36.65-.65,1.08-.79,1.01-.36,2.34-.11,3.13.61.54.54.86,1.3,1.12,2.02.5,1.58.68,3.24.83,4.86.14,1.8.22,3.6.18,5.4-.04,1.44-.11,2.92-.47,4.36-.22.9-.54,1.84-1.19,2.48-1.04,1.04-2.92.76-4.03-.25-.58-.54-.9-1.3-1.19-2.05-2.09,2.95-6.33,3.92-9.36,1.98ZM-320.3-71.4c.14-.22.07-.54.07-.83,0-.86.32-1.73.68-2.52.22-.47.5-.86.83-1.19.29-.29.04-.65-.36-.58-.5.14-.83.72-1.15,1.19-.47.72-1.22,3.06-1.04,3.92.07.47.72.43.97,0ZM-317.14-77.27c.11-.29-.22-.47-.5-.4-.36.07-.5.5-.22.68s.61,0,.72-.29Z"/>
    <path class="st0" d="M-288.16-58.8c-.5-.68-.76-1.58-.86-2.41-.29-2.48.11-5-.07-7.45-.04-.94-.14-1.91-.61-2.7-.11-.22-.32-.47-.58-.61-.72-.4-1.26.58-1.48,1.37-.18.72-.22,1.44-.25,2.16-.11,2.27.11,4.54-.14,6.8-.07.9-.22,1.84-.65,2.59-1.04,1.84-3.56,1.76-4.97.22-.9-1.01-1.3-2.38-1.66-3.64-1.12-4.25-1.62-8.85-.72-13.1.29-1.3.61-2.74,1.55-3.71,1.83-1.87,4.97-1.01,6.12,1.4,1.08-.94,2.38-1.76,3.78-1.98.9-.14,1.84-.07,2.66.29.94.36,1.73,1.04,2.34,1.84.86,1.04,1.44,2.3,1.76,3.6.54,2.05.61,4.21.58,6.33,0,2.66-.22,5.47-1.3,7.92-.32.79-.97,1.55-1.73,1.94-1.33.65-2.88.29-3.78-.86ZM-298.24-69.45c.07-.18-.04-.86-.07-1.08-.18-1.22-.04-2.48.11-3.74.07-.54.43-1.94.9-2.27.29-.22.18-.65-.22-.61-.29,0-.68.5-.83.79-.18.32-.61,1.76-.65,2.16-.18,1.33-.36,2.7-.18,4.03.04.18.04.79.18.9.18.25.65.14.76-.18ZM-296.11-78.02c.68-.18.54-1.01-.14-.83-.65.14-.5,1.01.14.83Z"/>
    <path class="st0" d="M-272.79-57.72c-2.02-.79-3.71-2.59-4.82-4.46-.76-1.33-1.22-2.84-1.44-4.36-.43-2.84-.07-5.94,1.22-8.49.68-1.33,1.69-2.56,2.95-3.31.68-.4,1.4-.68,2.16-.79,1.62-.22,3.28.5,4.68,1.26-.11-1.44.11-2.95.65-4.32.32-.72.76-1.44,1.33-1.98,1.4-1.37,4-1.62,5.54-.4.54.43.94,1.04,1.15,1.66.18.65.18,1.33.07,1.98-.43,2.81-.58,5.69-.65,8.53-.04,3.35.07,6.7.29,10.01.07.9.11,1.87-.18,2.74-.18.58-.54,1.12-1.01,1.48-.58.5-1.37.76-2.12.83-1.22.11-2.48-.18-3.56-.72-1.87.9-4.32,1.12-6.26.36ZM-275.85-71.65c0-.65.11-1.33.36-1.94.11-.36.76-1.73,1.01-2.02.36-.36.79-.72,1.26-.9.11-.04.22-.11.32-.07.54.07.76-.58.25-.76-.4-.14-1.26.25-1.62.5-.47.29-.9.65-1.19,1.12-.54.86-.94,1.84-1.19,2.81-.04.11-.22.61-.22.72,0,.18-.04.76.11.94.29.29.9.04.9-.4ZM-267.85-67.29c.36-1.51.04-4.14-1.26-5-.36-.22-.83-.29-1.22-.18-1.55.54-1.8,2.99-1.55,4.61.11.86.5,1.91,1.3,2.3,1.19.65,2.41-.4,2.74-1.73ZM-270.52-77.16c.47-.32.11-.9-.4-.68-.9.43-.4,1.26.4.68Z"/>
    <path class="st0" d="M-253.49-58.19c-.79-.61-1.37-1.51-1.76-2.45-.79-1.91-1.12-4-1.3-6.05-.25-2.74-.11-5.62.79-8.21.22-.65.5-1.3.94-1.8t.04-.07c.43-.72,1.08-1.33,1.83-1.69.94-.47,3.1-.22,4,.36.32.25,1.22,1.33,1.4,1.69.14.25.18.5.29.79.65-.58,1.33-1.04,2.09-1.44,1.19-.65,2.81-.79,4.03-.25.97.43,1.8,1.3,2.2,2.3.32.76.36,1.62.32,2.45-.07.79-.22,1.62-.58,2.34-.22.47-.54.9-.97,1.19-.32.22-.76.32-1.15.29-1.12-.07-2.23-.54-3.31-.4-.76.11-1.4.79-1.8,1.44-.11.18-.61,1.01-.61,1.26-.29,2.23-.94,7.38-2.95,8.39-.86.47-2.74.47-3.49-.14ZM-254.64-69.2c0-.22-.04-1.51,0-1.73.14-.97.25-1.94.54-2.88.22-.65.58-1.3,1.08-1.69.18-.14.43-.18.47-.4.11-.5-.61-.54-1.04-.22-.43.32-.79.76-1.04,1.22-.18.36-.61,1.94-.68,2.3-.04.18-.14,1.15-.18,1.33-.18.61.04,1.3-.18,1.87-.07.14.04.36.14.5.25.29.86.07.9-.32ZM-251.08-76.4c.22-.22.25-.58-.04-.68-.36-.14-.72.22-.65.58.04.32.47.32.68.11Z"/>
    <path class="st0" d="M-232.36-58.69c-1.08-.43-2.09-1.22-2.81-2.16-1.04-1.3-1.66-3.02-1.8-4.68-.22-2.45.07-5.04.97-7.34.43-1.15,1.01-2.23,1.8-3.2,2.2-2.7,5.94-3.92,9.32-3.1,1.37.36,2.74,1.08,3.71,2.12,1.19,1.26,1.8,3.06,2.02,4.75.36,2.56.04,5.18-.18,7.78-.11,1.19-.29,2.38-.65,3.49-.22.61-.43,1.19-.79,1.69-.5.65-1.3,1.04-2.09.97-1.04-.07-2.05-.94-2.59-1.84-.86.9-2.05,1.62-3.28,1.87-1.19.25-2.52.11-3.64-.36ZM-233.83-71.15c0-.22.29-1.15.36-1.37.14-.43.68-1.94,1.04-2.27.25-.22.47-.5.68-.76.14-.18.94-.68,1.15-.79.76.07.72-.97,0-.76-.36.07-1.44.68-1.69.94-.22.18-.36.47-.58.68-.18.18-.4.32-.5.58-.4.61-1.4,3.13-1.48,3.85-.07.61,1.01.54,1.01-.11ZM-226.78-66.68c.29-.18.54-.43.76-.72.54-.76.97-1.69.94-2.63-.07-1.44-1.3-2.63-2.7-2.23-1.19.29-2.23,1.94-2.27,3.17-.07,1.84,1.69,3.35,3.28,2.41ZM-228.47-77.95c-.47,0-.68.58-.29.76.72.29,1.04-.83.29-.76Z"/>
    <path class="st0" d="M-213.39-58.04c-.61-.32-1.08-.9-1.48-1.48-.86-1.3-1.26-2.92-1.51-4.5-.4-2.48-.36-5.11.4-7.49.25-.79.58-1.58,1.19-2.16l.04-.04c.47-.65,1.15-1.19,1.91-1.48.86-.29,3.1-.07,3.89.36.4.22,1.33,1.19,1.51,1.58.43,1.01.72,2.09.79,3.17.11,1.84-.18,3.67-.47,5.51-.22,1.51-.47,3.06-1.08,4.46-.32.68-.68,1.4-1.26,1.84-.9.65-2.95.72-3.92.22ZM-214.75-77.52c-1.19-1.08-1.44-3.1-.5-4.54.58-.86,1.4-1.58,2.38-1.98.9-.36,1.94-.4,2.92-.18.54.14,1.08.4,1.58.68.68.43,1.33,1.04,1.62,1.8.25.54.29,1.19.18,1.76-.25,1.33-1.22,2.74-2.48,3.28-1.48.61-4.46.22-5.69-.83ZM-214.18-67.01v-.5c-.04-.25-.07-1.51-.04-1.8.04-.14.11-.97.18-1.12.07-.32.47-1.37.76-1.58.54-.4-.14-.97-.61-.5-.54.58-1.22,2.66-1.22,3.46,0,.29-.07,1.69,0,1.98.04.11.14.43.22.5.29.18.76-.07.72-.43ZM-213.78-79.5c.11-.18,0-.4.04-.61.07-.43.36-1.4.76-1.58.54-.25.22-.86-.32-.61-.4.14-.97,1.15-1.12,1.55-.11.29-.32,1.12-.18,1.4.18.36.68.22.83-.14ZM-212.7-72.98c.54-.04.65-.79.07-.76-.54.04-.61.79-.07.76ZM-211.3-83.02c-.32-.4-.79-.07-.83.32-.07.68,1.12,0,.83-.32Z"/>
    <path class="st0" d="M-199.63-57.83c-1.04-.18-2.12-.5-2.99-1.12-.54-.36-1.04-.9-1.22-1.51-.14-.43-.18-.86-.22-1.3-.04-1.26.29-3.38,1.44-3.85.58-.22,1.26-.25,1.87-.14.32.07,1.91.68,2.23.79.61.25,1.3.54,1.94.43.54-.14.76-.79.4-1.22-.47-.61-2.88-1.22-3.64-1.48-1.22-.36-2.34-1.19-3.02-2.27-1.84-2.81-1.3-7.45,1.19-9.65,1.01-.9,2.38-1.37,3.71-1.62,2.12-.36,4.39-.22,6.44.47,3.2,1.08,4,5.22,1.4,7.45-.36.32-.86.5-1.37.58-.83.11-1.73-.07-2.52-.36-.94-.36-2.63-.36-2.05.43.5.68,3.17,1.4,3.96,1.69.54.18,1.08.43,1.55.76,1.08.76,1.8,2.09,2.09,3.38.5,2.16-.07,4.57-1.51,6.19-.79.94-1.91,1.58-3.06,1.98-2.09.72-4.43.72-6.62.36ZM-201.54-72.59c-.36-.76-.25-1.76,0-2.59.32-1.08.97-2.27,1.94-2.81.07-.04.25-.14.32-.14.47.04.79-.54.36-.72-.22-.07-.47-.04-.68.07-.86.32-1.62,1.08-2.12,1.87-.47.76-.79,1.8-.9,2.66-.11.65-.07,1.37.18,1.98.22.54,1.15.22.9-.32ZM-197.19-78.92c.54-.58-.54-1.08-.83-.32-.14.43.5.68.83.32Z"/>
    <path class="st0" d="M-179.98-58.01c-1.37-.4-2.66-1.19-3.67-2.23-1.04-1.12-1.76-2.59-2.16-4.07-.65-2.56-.54-5.36.11-7.92.58-2.2,1.84-4.18,3.64-5.54,1.44-1.15,3.31-1.87,5.15-1.98,1.69-.07,3.46.4,4.9,1.26.79.47,1.55,1.04,2.05,1.8.76,1.19,1.04,2.7.97,4.1-.11,1.73-.83,3.64-2.16,4.72-.54.47-1.19.76-1.87.94-1.12.29-2.3.5-3.49.43-.79-.04-1.62-.18-2.34-.58.07.5.25,1.04.65,1.4.43.4,1.12.5,1.73.47,1.26-.04,2.45-.47,3.71-.65.5-.11,1.08-.14,1.55.04,1.66.65,1.98,2.95,1.51,4.64-.22.65-.72,1.22-1.26,1.66-.79.65-1.76,1.19-2.77,1.44-2.02.54-4.25.68-6.23.07ZM-183.04-72.91c.18-.5.32-1.04.61-1.51.29-.43,1.4-1.8,1.87-2.05.11-.04.22-.11.32-.22.14-.11.32-.18.5-.25.04,0,.22-.11.25-.07.4.07.79-.43.43-.68-.14-.11-.58-.04-.76.04-.32.14-.68.29-.97.5-.07.07-.47.32-.54.36-.22.14-1.12,1.12-1.3,1.33-.36.43-1.26,1.94-1.3,2.52-.04.5.68.47.86.04ZM-176.99-78.6c-.43-.29-1.04.29-.61.58.43.32,1.04-.29.61-.58ZM-175.69-70.97c.61-.18,1.12-.68,1.44-1.26.61-1.12-.79-2.2-1.87-1.55-.58.36-1.22.86-1.44,1.51-.29,1.01.86,1.58,1.87,1.3Z"/>
    <path class="st0" d="M-163.71-58.19c-.79-.61-1.37-1.51-1.76-2.45-.79-1.91-1.12-4-1.3-6.05-.25-2.74-.11-5.62.79-8.21.22-.65.5-1.3.94-1.8t.04-.07c.43-.72,1.08-1.33,1.83-1.69.94-.47,3.1-.22,4,.36.32.25,1.22,1.33,1.4,1.69.14.25.18.5.29.79.65-.58,1.33-1.04,2.09-1.44,1.19-.65,2.81-.79,4.03-.25.97.43,1.8,1.3,2.2,2.3.32.76.36,1.62.32,2.45-.07.79-.22,1.62-.58,2.34-.22.47-.54.9-.97,1.19-.32.22-.76.32-1.15.29-1.12-.07-2.23-.54-3.31-.4-.76.11-1.4.79-1.8,1.44-.11.18-.61,1.01-.61,1.26-.29,2.23-.94,7.38-2.95,8.39-.86.47-2.74.47-3.49-.14ZM-164.86-69.2c0-.22-.04-1.51,0-1.73.14-.97.25-1.94.54-2.88.22-.65.58-1.3,1.08-1.69.18-.14.43-.18.47-.4.11-.5-.61-.54-1.04-.22-.43.32-.79.76-1.04,1.22-.18.36-.61,1.94-.68,2.3-.04.18-.14,1.15-.18,1.33-.18.61.04,1.3-.18,1.87-.07.14.04.36.14.5.25.29.86.07.9-.32ZM-161.29-76.4c.22-.22.25-.58-.04-.68-.36-.14-.72.22-.65.58.04.32.47.32.68.11Z"/>
  </g>
  <g>
    <path class="st0" d="M-298.27,99.77c-.65-.61-1.04-1.48-1.33-2.34-.79-2.41-.94-5.04-1.04-7.56-1.15-.11-2.34.04-3.53.11-.04,1.37-.18,2.7-.4,4.07-.18,1.22-.4,2.45-.76,3.64-.18.61-.4,1.3-.83,1.8-.43.5-1.08.86-1.73.97-.72.11-1.55-.11-2.16-.5-.97-.58-1.76-1.58-2.09-2.66-.79-2.41-1.12-5-1.22-7.56-.83-.4-1.66-.83-2.16-1.55-.94-1.26-.07-2.92,1.26-3.78.25-.18.54-.32.86-.36.07-2.02.18-4.07.58-6.05.25-1.19.61-2.45,1.3-3.49.94-1.4,2.88-2.23,4.36-1.37.5.29.9.76,1.22,1.22.9,1.37,1.3,3.06,1.51,4.68.25,1.51.43,3.02.36,4.57.47.04,2.88-.07,3.31-.11-.04-1.66.14-3.35.43-5,.22-1.22.47-2.48,1.04-3.6.36-.68.9-1.37,1.58-1.76.68-.36,1.58-.47,2.34-.25.9.25,1.69.94,2.16,1.73.86,1.3,1.19,2.92,1.4,4.46.22,1.76.32,3.56.4,5.33.61.5,1.19,1.01,1.66,1.62.18.25.32.5.36.79,0,.43-.18.86-.4,1.26-.4.65-1.04,1.22-1.66,1.69-.11,2.48-.43,5-1.19,7.38-.32.97-.94,1.91-1.73,2.52-.54.43-1.19.76-1.87.83-.76.07-1.51-.22-2.05-.72ZM-311.01,81.95c-.07-.5.04-2.74.14-3.28.11-.61.18-1.26.43-1.84.07-.18.47-.76.61-.9.54-.36-.11-.9-.58-.4-.65.65-1.01,1.58-1.19,2.48-.04.18-.25,1.15-.25,1.33-.11.83-.11,1.69-.11,2.56,0,.14,0,.29.11.4.25.32.9.04.83-.36ZM-308.2,74.68c.07-.58-.79-.5-.86.04-.04.5.83.47.86-.04Z"/>
    <path class="st0" d="M-284.16,99.95c-.61-.32-1.08-.9-1.48-1.48-.86-1.3-1.26-2.92-1.51-4.5-.4-2.48-.36-5.11.4-7.49.25-.79.58-1.58,1.19-2.16l.04-.04c.47-.65,1.15-1.19,1.91-1.48.86-.29,3.1-.07,3.89.36.4.22,1.33,1.19,1.51,1.58.43,1.01.72,2.09.79,3.17.11,1.84-.18,3.67-.47,5.51-.22,1.51-.47,3.06-1.08,4.46-.32.68-.68,1.4-1.26,1.84-.9.65-2.95.72-3.92.22ZM-285.52,80.48c-1.19-1.08-1.44-3.1-.5-4.54.58-.86,1.4-1.58,2.38-1.98.9-.36,1.94-.4,2.92-.18.54.14,1.08.4,1.58.68.68.43,1.33,1.04,1.62,1.8.25.54.29,1.19.18,1.76-.25,1.33-1.22,2.74-2.48,3.28-1.48.61-4.46.22-5.69-.83ZM-284.95,90.99v-.5c-.04-.25-.07-1.51-.04-1.8.04-.14.11-.97.18-1.12.07-.32.47-1.37.76-1.58.54-.4-.14-.97-.61-.5-.54.58-1.22,2.66-1.22,3.46,0,.29-.07,1.69,0,1.98.04.11.14.43.22.5.29.18.76-.07.72-.43ZM-284.55,78.5c.11-.18,0-.4.04-.61.07-.43.36-1.4.76-1.58.54-.25.22-.86-.32-.61-.4.14-.97,1.15-1.12,1.55-.11.29-.32,1.12-.18,1.4.18.36.68.22.83-.14ZM-283.47,85.01c.54-.04.65-.79.07-.76-.54.04-.61.79-.07.76ZM-282.07,74.97c-.32-.4-.79-.07-.83.32-.07.68,1.12,0,.83-.32Z"/>
    <path class="st0" d="M-270.41,100.17c-1.04-.18-2.12-.5-2.99-1.12-.54-.36-1.04-.9-1.22-1.51-.14-.43-.18-.86-.22-1.3-.04-1.26.29-3.38,1.44-3.85.58-.22,1.26-.25,1.87-.14.32.07,1.91.68,2.23.79.61.25,1.3.54,1.94.43.54-.14.76-.79.4-1.22-.47-.61-2.88-1.22-3.64-1.48-1.22-.36-2.34-1.19-3.02-2.27-1.84-2.81-1.3-7.45,1.19-9.65,1.01-.9,2.38-1.37,3.71-1.62,2.12-.36,4.39-.22,6.44.47,3.2,1.08,4,5.22,1.4,7.45-.36.32-.86.5-1.37.58-.83.11-1.73-.07-2.52-.36-.94-.36-2.63-.36-2.05.43.5.68,3.17,1.4,3.96,1.69.54.18,1.08.43,1.55.76,1.08.76,1.8,2.09,2.09,3.38.5,2.16-.07,4.57-1.51,6.19-.79.94-1.91,1.58-3.06,1.98-2.09.72-4.43.72-6.62.36ZM-272.31,85.41c-.36-.76-.25-1.76,0-2.59.32-1.08.97-2.27,1.94-2.81.07-.04.25-.14.32-.14.47.04.79-.54.36-.72-.22-.07-.47-.04-.68.07-.86.32-1.62,1.08-2.12,1.87-.47.76-.79,1.8-.9,2.66-.11.65-.07,1.37.18,1.98.22.54,1.15.22.9-.32ZM-267.96,79.07c.54-.58-.54-1.08-.83-.32-.14.43.5.68.83.32Z"/>
    <path class="st0" d="M-246.97,100.06c-1.73,0-3.56-.5-4.93-1.55-1.33-1.01-2.16-2.41-2.41-4.1-.32-2.2-.22-4.43-.04-6.62-.43-.14-1.84-1.04-2.16-1.33-.4-.4-.79-.9-.9-1.48-.07-.58.14-1.15.4-1.69.4-.79,1.12-1.4,1.87-1.94.43-.32.97-.65,1.26-1.12.25-.5.25-1.08.32-1.62.14-1.01.22-2.12.68-3.06.22-.43.61-.83,1.04-1.08.54-.32,1.19-.43,1.84-.5.65-.04,1.33.04,1.94.25.58.25,1.15.65,1.44,1.19.25.43.36.94.4,1.44.07,1.08.04,2.16-.04,3.24,1.3-.07,2.59-.11,3.89.14.47.07.94.25,1.26.54,1.26,1.22,1.08,3.85.22,5.36-.36.58-1.08.97-1.76,1.15-1.01.29-2.09.11-3.13.04-.22-.04-.43-.07-.65-.11-.07.61-.07,1.22-.04,1.84.04.54.18,1.76.65,2.02.47.25,1.84-.07,2.34-.18.61-.18,1.3-.18,1.94-.07.58.11,1.19.54,1.4,1.08.61,1.4.9,3.06.54,4.54-.18.76-.65,1.51-1.26,1.98-1.73,1.26-4.03,1.62-6.12,1.66ZM-251.87,79.79c-.04-.86,0-1.8.25-2.66.04-.18.25-.76.43-.86.58-.43-.25-.97-.68-.36-.54.79-.72,1.87-.79,2.88,0,.22-.11,1.04-.04,1.22.18.36.83.18.83-.22ZM-249.85,75.47c.25-.11.36-.43.14-.61-.29-.18-.72.04-.76.36-.04.29.32.4.61.25Z"/>
    <path class="st0" d="M-232.86,99.48c-1.84-1.08-3.24-2.99-3.96-5-.54-1.37-.76-2.88-.72-4.36.11-2.12.47-4.28,1.3-6.26.43-1.12,1.08-2.2,1.91-3.06.94-.97,2.02-1.73,3.24-2.23,1.55-.61,3.31-.83,4.97-.61,2.05.25,4,1.62,5.25,3.28.9,1.22,1.4,2.77,1.58,4.28.32,3.02.11,6.3-1.08,9.14-.61,1.58-1.62,3.06-2.84,4.18-1.01.94-2.41,1.48-3.78,1.62-1.98.22-4.17.04-5.87-.97ZM-234.66,88.83c.04-.25,0-.54.04-.83.25-2.23,1.04-4.61,2.59-6.26.11-.07.36-.4.5-.4.72-.22.22-1.08-.4-.65-.68.47-1.26,1.12-1.69,1.8-.65,1.08-1.22,2.23-1.55,3.42-.11.32-.47,2.09-.5,2.45-.04.22-.14.68.07.83.36.25.86.07.94-.36ZM-229.37,80.05c.58-.61-.68-.86-.86-.32-.25.65.5.68.86.32ZM-226.88,91.46c.54-.76.72-1.73.79-2.66.07-1.12-.04-2.27-.43-3.31-.07-.22-.18-.43-.32-.61-.76-.94-2.12-.14-2.52,1.01-.4,1.08-.68,2.23-.79,3.35-.11.83-.11,1.73.29,2.45.68,1.08,2.27.83,2.99-.22Z"/>
    <path class="st0" d="M-213.92,99.81c-.79-.61-1.37-1.51-1.76-2.45-.79-1.91-1.12-4-1.3-6.05-.25-2.74-.11-5.62.79-8.21.22-.65.5-1.3.94-1.8t.04-.07c.43-.72,1.08-1.33,1.83-1.69.94-.47,3.1-.22,4,.36.32.25,1.22,1.33,1.4,1.69.14.25.18.5.29.79.65-.58,1.33-1.04,2.09-1.44,1.19-.65,2.81-.79,4.03-.25.97.43,1.8,1.3,2.2,2.3.32.76.36,1.62.32,2.45-.07.79-.22,1.62-.58,2.34-.22.47-.54.9-.97,1.19-.32.22-.76.32-1.15.29-1.12-.07-2.23-.54-3.31-.4-.76.11-1.4.79-1.8,1.44-.11.18-.61,1.01-.61,1.26-.29,2.23-.94,7.38-2.95,8.39-.86.47-2.74.47-3.49-.14ZM-215.07,88.79c0-.22-.04-1.51,0-1.73.14-.97.25-1.94.54-2.88.22-.65.58-1.3,1.08-1.69.18-.14.43-.18.47-.4.11-.5-.61-.54-1.04-.22-.43.32-.79.76-1.04,1.22-.18.36-.61,1.94-.68,2.3-.04.18-.14,1.15-.18,1.33-.18.61.04,1.3-.18,1.87-.07.14.04.36.14.5.25.29.86.07.9-.32ZM-211.51,81.59c.22-.22.25-.58-.04-.68-.36-.14-.72.22-.65.58.04.32.47.32.68.11Z"/>
    <path class="st0" d="M-188.65,106.9c-1.08-.25-2.16-.68-3.06-1.4-2.3-1.84-2.23-5.65.65-6.37,1.51-.4,3.17.32,4.68,0,.4-.11.79-.25,1.08-.54.5-.58.68-1.37.86-2.12-.9.68-1.94,1.19-3.06,1.4-2.7.61-5.69-.29-7.67-2.2-.79-.83-1.44-1.84-1.8-2.88-.72-2.05-.68-4.36-.29-6.44.22-1.26.61-2.52,1.19-3.67.58-1.04,1.48-2.02,2.56-2.56,1.69-.83,3.82-.5,4.54,1.22.36.79.25,1.73.18,2.59-.14,1.04-.32,2.12-.43,3.17-.07.79-.11,1.62.07,2.41.11.61.32,1.26.72,1.69,1.19,1.33,2.84-.5,3.53-2.16.25-.65.47-3.82.54-4.54.11-1.12.36-2.3.94-3.24.36-.61.94-1.19,1.58-1.44.72-.25,1.55-.22,2.27,0,.83.29,1.55.94,2.05,1.69,1.22,1.76,1.44,4.14,1.51,6.3.14,3.42.04,6.91-.76,10.22-.47,1.91-1.22,3.82-2.38,5.4-1.01,1.33-2.41,2.52-4,3.1-1.73.61-3.71.72-5.51.36ZM-194.91,89.44c-.29-.58-.29-2.59-.14-3.24.22-.97.54-1.91,1.01-2.81.07-.11.32-.43.29-.58-.04-.4-.65-.29-.86.07-.58,1.01-.97,2.16-1.26,3.28-.11.4-.25,1.87-.14,2.23.07.36.07,1.37.36,1.58.36.22.9-.18.76-.54ZM-192.83,82.06c.5-.25.25-.79-.29-.65-.68.18-.32.94.29.65Z"/>
  </g>
  <g>
    <path class="st0" d="M-336.04,177.76c-1.87-1.19-3.35-3.06-4.28-5.08-1.19-2.66-1.55-5.8-1.19-8.75.36-2.99,1.51-6.05,3.53-8.28,1.87-2.12,4.79-3.56,7.6-3.82,2.38-.22,4.93.5,6.91,1.8,1.08.72,2.12,1.8,2.45,3.02.36,1.4-.29,3.17-1.37,4.1-.58.5-1.37.76-2.12.76-1.51-.04-2.95-.76-4.32-1.4-.43-.18-.94-.29-1.4-.18-.47.07-.86.4-1.19.76-.5.65-.79,1.44-1.01,2.23-.29,1.04-.43,2.12-.47,3.2-.04.94,0,1.91.29,2.84.22.61.61,1.22,1.19,1.51.58.25,1.22.29,1.84.22,1.29-.18,2.52-.65,3.74-1.01.68-.18,1.37-.32,2.09-.32,2.38,0,3.85,2.52,3.06,4.79-.58,1.69-2.12,3.06-3.71,3.82-1.76.83-3.74,1.37-5.72,1.4-2.02,0-4.18-.54-5.9-1.62ZM-338.99,162.25c.11-1.01.47-1.98.97-2.88.76-1.44,1.76-2.84,3.1-3.74.25-.18.54-.29.83-.4.29-.14.36-.54.07-.65-.43-.18-1.26.36-1.58.61-1.4,1.01-2.48,2.48-3.24,4.03-.32.61-1.12,2.56-1.01,3.2.07.47.83.29.86-.18ZM-332.41,154.65c.43-.11.54-.68.11-.72-.94-.14-.97.97-.11.72Z"/>
    <path class="st0" d="M-313.9,178.48c-1.84-1.08-3.24-2.99-3.96-5-.54-1.37-.76-2.88-.72-4.36.11-2.12.47-4.28,1.3-6.26.43-1.12,1.08-2.2,1.91-3.06.94-.97,2.02-1.73,3.24-2.23,1.55-.61,3.31-.83,4.97-.61,2.05.25,4,1.62,5.25,3.28.9,1.22,1.4,2.77,1.58,4.28.32,3.02.11,6.3-1.08,9.14-.61,1.58-1.62,3.06-2.84,4.18-1.01.94-2.41,1.48-3.78,1.62-1.98.22-4.17.04-5.87-.97ZM-315.7,167.83c.04-.25,0-.54.04-.83.25-2.23,1.04-4.61,2.59-6.26.11-.07.36-.4.5-.4.72-.22.22-1.08-.4-.65-.68.47-1.26,1.12-1.69,1.8-.65,1.08-1.22,2.23-1.55,3.42-.11.32-.47,2.09-.5,2.45-.04.22-.14.68.07.83.36.25.86.07.94-.36ZM-310.41,159.04c.58-.61-.68-.86-.86-.32-.25.65.5.68.86.32ZM-307.93,170.45c.54-.76.72-1.73.79-2.66.07-1.12-.04-2.27-.43-3.31-.07-.22-.18-.43-.32-.61-.76-.94-2.12-.14-2.52,1.01-.4,1.08-.68,2.23-.79,3.35-.11.83-.11,1.73.29,2.45.68,1.08,2.27.83,2.99-.22Z"/>
    <path class="st0" d="M-285.57,178.19c-.5-.68-.76-1.58-.86-2.41-.29-2.48.11-5-.07-7.45-.04-.94-.14-1.91-.61-2.7-.11-.22-.32-.47-.58-.61-.72-.4-1.26.58-1.48,1.37-.18.72-.22,1.44-.25,2.16-.11,2.27.11,4.54-.14,6.8-.07.9-.22,1.84-.65,2.59-1.04,1.84-3.56,1.76-4.97.22-.9-1.01-1.3-2.38-1.66-3.64-1.12-4.25-1.62-8.85-.72-13.1.29-1.3.61-2.74,1.55-3.71,1.83-1.87,4.97-1.01,6.12,1.4,1.08-.94,2.38-1.76,3.78-1.98.9-.14,1.84-.07,2.66.29.94.36,1.73,1.04,2.34,1.84.86,1.04,1.44,2.3,1.76,3.6.54,2.05.61,4.21.58,6.33,0,2.66-.22,5.47-1.3,7.92-.32.79-.97,1.55-1.73,1.94-1.33.65-2.88.29-3.78-.86ZM-295.65,167.54c.07-.18-.04-.86-.07-1.08-.18-1.22-.04-2.48.11-3.74.07-.54.43-1.94.9-2.27.29-.22.18-.65-.22-.61-.29,0-.68.5-.83.79-.18.32-.61,1.76-.65,2.16-.18,1.33-.36,2.7-.18,4.03.04.18.04.79.18.9.18.25.65.14.76-.18ZM-293.53,158.97c.68-.18.54-1.01-.14-.83-.65.14-.5,1.01.14.83Z"/>
    <path class="st0" d="M-266.64,179.06c-1.73,0-3.56-.5-4.93-1.55-1.33-1.01-2.16-2.41-2.41-4.1-.32-2.2-.22-4.43-.04-6.62-.43-.14-1.84-1.04-2.16-1.33-.4-.4-.79-.9-.9-1.48-.07-.58.14-1.15.4-1.69.4-.79,1.12-1.4,1.87-1.94.43-.32.97-.65,1.26-1.12.25-.5.25-1.08.32-1.62.14-1.01.22-2.12.68-3.06.22-.43.61-.83,1.04-1.08.54-.32,1.19-.43,1.84-.5.65-.04,1.33.04,1.94.25.58.25,1.15.65,1.44,1.19.25.43.36.94.4,1.44.07,1.08.04,2.16-.04,3.24,1.3-.07,2.59-.11,3.89.14.47.07.94.25,1.26.54,1.26,1.22,1.08,3.85.22,5.36-.36.58-1.08.97-1.76,1.15-1.01.29-2.09.11-3.13.04-.22-.04-.43-.07-.65-.11-.07.61-.07,1.22-.04,1.84.04.54.18,1.76.65,2.02.47.25,1.84-.07,2.34-.18.61-.18,1.3-.18,1.94-.07.58.11,1.19.54,1.4,1.08.61,1.4.9,3.06.54,4.54-.18.76-.65,1.51-1.26,1.98-1.73,1.26-4.03,1.62-6.12,1.66ZM-271.53,158.79c-.04-.86,0-1.8.25-2.66.04-.18.25-.76.43-.86.58-.43-.25-.97-.68-.36-.54.79-.72,1.87-.79,2.88,0,.22-.11,1.04-.04,1.22.18.36.83.18.83-.22ZM-269.52,154.47c.25-.11.36-.43.14-.61-.29-.18-.72.04-.76.36-.04.29.32.4.61.25Z"/>
    <path class="st0" d="M-252.49,178.3c-1.08-.43-2.09-1.22-2.81-2.16-1.04-1.3-1.66-3.02-1.8-4.68-.22-2.45.07-5.04.97-7.34.43-1.15,1.01-2.23,1.8-3.2,2.2-2.7,5.94-3.92,9.32-3.1,1.37.36,2.74,1.08,3.71,2.12,1.19,1.26,1.8,3.06,2.02,4.75.36,2.56.04,5.18-.18,7.78-.11,1.19-.29,2.38-.65,3.49-.22.61-.43,1.19-.79,1.69-.5.65-1.3,1.04-2.09.97-1.04-.07-2.05-.94-2.59-1.84-.86.9-2.05,1.62-3.28,1.87-1.19.25-2.52.11-3.64-.36ZM-253.96,165.85c0-.22.29-1.15.36-1.37.14-.43.68-1.94,1.04-2.27.25-.22.47-.5.68-.76.14-.18.94-.68,1.15-.79.76.07.72-.97,0-.76-.36.07-1.44.68-1.69.94-.22.18-.36.47-.58.68-.18.18-.4.32-.5.58-.4.61-1.4,3.13-1.48,3.85-.07.61,1.01.54,1.01-.11ZM-246.91,170.31c.29-.18.54-.43.76-.72.54-.76.97-1.69.94-2.63-.07-1.44-1.3-2.63-2.7-2.23-1.19.29-2.23,1.94-2.27,3.17-.07,1.84,1.69,3.35,3.28,2.41ZM-248.6,159.04c-.47,0-.68.58-.29.76.72.29,1.04-.83.29-.76Z"/>
    <path class="st0" d="M-228.84,178.95c-1.98-.4-3.96-1.3-5.4-2.7-1.37-1.37-2.34-3.24-2.66-5.11-.54-3.24-.11-6.8,1.37-9.68.76-1.48,1.87-2.81,3.2-3.71,1.04-.68,2.27-1.19,3.49-1.33,3.24-.47,7.49,1.01,8.32,4.18.54,1.98-.5,4.21-2.52,4.54-1.26.18-2.45-.5-3.67-.79-1.4-.36-2.66.9-3.1,2.27-.5,1.69.18,3.92,1.8,4.57.79.32,1.73.43,2.56.25.32-.07,1.87-.76,2.2-.86.47-.22,1.01-.22,1.48-.04,1.55.58,2.12,2.63,1.66,4.25-.18.65-.54,1.26-.97,1.8-.76.9-1.84,1.58-2.95,1.98-1.48.58-3.2.68-4.79.4ZM-232.73,161.81c.11-.76,1.33-2.16,1.98-2.56.43-.25.86-.47,1.33-.5.25-.04.54-.22.5-.5-.04-.25-.4-.29-.65-.25-.22,0-.43,0-.61.07-.32.07-1.3.58-1.51.83-.4.36-.79.76-1.12,1.22-.22.29-.83,1.4-.86,1.76-.07.58.86.5.94-.07ZM-227.25,157.67c-.36-.25-1.01.14-.68.58.29.32,1.19-.25.68-.58Z"/>
    <path class="st0" d="M-208.03,179.06c-1.73,0-3.56-.5-4.93-1.55-1.33-1.01-2.16-2.41-2.41-4.1-.32-2.2-.22-4.43-.04-6.62-.43-.14-1.84-1.04-2.16-1.33-.4-.4-.79-.9-.9-1.48-.07-.58.14-1.15.4-1.69.4-.79,1.12-1.4,1.87-1.94.43-.32.97-.65,1.26-1.12.25-.5.25-1.08.32-1.62.14-1.01.22-2.12.68-3.06.22-.43.61-.83,1.04-1.08.54-.32,1.19-.43,1.84-.5.65-.04,1.33.04,1.94.25.58.25,1.15.65,1.44,1.19.25.43.36.94.4,1.44.07,1.08.04,2.16-.04,3.24,1.3-.07,2.59-.11,3.89.14.47.07.94.25,1.26.54,1.26,1.22,1.08,3.85.22,5.36-.36.58-1.08.97-1.76,1.15-1.01.29-2.09.11-3.13.04-.22-.04-.43-.07-.65-.11-.07.61-.07,1.22-.04,1.84.04.54.18,1.76.65,2.02.47.25,1.84-.07,2.34-.18.61-.18,1.3-.18,1.94-.07.58.11,1.19.54,1.4,1.08.61,1.4.9,3.06.54,4.54-.18.76-.65,1.51-1.26,1.98-1.73,1.26-4.03,1.62-6.12,1.66ZM-212.93,158.79c-.04-.86,0-1.8.25-2.66.04-.18.25-.76.43-.86.58-.43-.25-.97-.68-.36-.54.79-.72,1.87-.79,2.88,0,.22-.11,1.04-.04,1.22.18.36.83.18.83-.22ZM-210.91,154.47c.25-.11.36-.43.14-.61-.29-.18-.72.04-.76.36-.04.29.32.4.61.25Z"/>
    <path class="st0" d="M-180.92,178.7c-1.8-.47-3.6-1.44-4.9-2.77-1.15-1.22-1.94-2.81-2.41-4.39-.76-2.56-.83-5.33-.76-7.99.04-2.16.07-4.32.61-6.41.32-1.44.97-2.88,2.05-3.89,1.69-1.58,4.36-1.91,5.72-.04.61.79.86,1.87.94,2.88.22,2.88-.68,5.76-.68,8.67,0,.76.11,1.58.36,2.3.25.61.76,1.22,1.37,1.44,1.08.32,2.23-.65,2.7-1.66.4-.79.54-1.73.5-2.59-.07-3.06-.54-6.19.07-9.21.22-.97.61-2.02,1.4-2.63,1.55-1.19,3.71-.61,4.9.94.76,1.01,1.19,2.27,1.44,3.49.72,3.82.9,7.81.32,11.63-.4,2.56-1.37,5.15-3.06,7.13-.97,1.12-2.27,2.05-3.67,2.63-2.12.9-4.64,1.04-6.91.47ZM-186.86,162.39c0-1.91-.14-3.89.5-5.69.11-.25.32-.47.43-.72.07-.14.14-.36.32-.4.32-.07.5-.54.14-.68-.36-.11-.83.22-1.04.58-.11.14-.61.94-.65,1.12-.14.32-.47,1.8-.47,2.12-.04.58-.22,3.42-.11,4,.11.61,1.15.25.86-.32ZM-183.95,154.18c.29-.29.22-.79-.43-.61-.5.14-.14,1.19.43.61Z"/>
    <path class="st0" d="M-159.97,179.16c-1.04-.18-2.12-.5-2.99-1.12-.54-.36-1.04-.9-1.22-1.51-.14-.43-.18-.86-.22-1.3-.04-1.26.29-3.38,1.44-3.85.58-.22,1.26-.25,1.87-.14.32.07,1.91.68,2.23.79.61.25,1.3.54,1.94.43.54-.14.76-.79.4-1.22-.47-.61-2.88-1.22-3.64-1.48-1.22-.36-2.34-1.19-3.02-2.27-1.84-2.81-1.3-7.45,1.19-9.65,1.01-.9,2.38-1.37,3.71-1.62,2.12-.36,4.39-.22,6.44.47,3.2,1.08,4,5.22,1.4,7.45-.36.32-.86.5-1.37.58-.83.11-1.73-.07-2.52-.36-.94-.36-2.63-.36-2.05.43.5.68,3.17,1.4,3.96,1.69.54.18,1.08.43,1.55.76,1.08.76,1.8,2.09,2.09,3.38.5,2.16-.07,4.57-1.51,6.19-.79.94-1.91,1.58-3.06,1.98-2.09.72-4.43.72-6.62.36ZM-161.88,164.41c-.36-.76-.25-1.76,0-2.59.32-1.08.97-2.27,1.94-2.81.07-.04.25-.14.32-.14.47.04.79-.54.36-.72-.22-.07-.47-.04-.68.07-.86.32-1.62,1.08-2.12,1.87-.47.76-.79,1.8-.9,2.66-.11.65-.07,1.37.18,1.98.22.54,1.15.22.9-.32ZM-157.52,158.07c.54-.58-.54-1.08-.83-.32-.14.43.5.68.83.32Z"/>
  </g>
  <g>
    <path class="st0" d="M14.67,37.38c-2.68-.04-5.43-.09-7.98-.6-1.37-.26-2.75-.64-3.66-1.32-2.49-1.92-1.57-4.78,1.77-6.01,1.51-.55,3.4-.6,5.17-.68,3.93-.21,7.85-.21,11.72-.13,2.03,0,12.5.38,14.46.6,1.18.13,2.42.6,3.14,1.24.79.73,1.11,1.66.98,2.56-.2,1.45-1.44,2.81-3.34,3.58-1.31.51-2.94.64-4.45.72-2.36.17-15.38.09-17.8.04ZM5.58,33.75c-.07-.13-.13-.26-.13-.38,0-.51,0-1.02.33-1.45.2-.3,1.18-.68,1.57-.77.59-.13.85-.55.39-.77-.92-.38-2.29.34-3.01.85-.72.43-.85,1.15-.85,1.79,0,.26.07.94.39,1.11.39.26,1.31,0,1.31-.38ZM9.89,30.72c.72,0,1.44-.6.85-.9-1.11-.51-2.23.9-.85.9Z"/>
    <path class="st0" d="M14.67,24.06c-2.68-.04-5.43-.09-7.98-.6-1.37-.26-2.75-.64-3.66-1.32-2.49-1.92-1.57-4.78,1.77-6.01,1.51-.55,3.4-.6,5.17-.68,3.93-.21,7.85-.21,11.72-.13,2.03,0,12.5.38,14.46.6,1.18.13,2.42.6,3.14,1.24.79.73,1.11,1.66.98,2.56-.2,1.45-1.44,2.81-3.34,3.58-1.31.51-2.94.64-4.45.72-2.36.17-15.38.09-17.8.04ZM5.58,20.44c-.07-.13-.13-.26-.13-.38,0-.51,0-1.02.33-1.45.2-.3,1.18-.68,1.57-.77.59-.13.85-.55.39-.77-.92-.38-2.29.34-3.01.85-.72.43-.85,1.15-.85,1.79,0,.26.07.94.39,1.11.39.26,1.31,0,1.31-.38ZM9.89,17.41c.72,0,1.44-.6.85-.9-1.11-.51-2.23.9-.85.9Z"/>
    <path class="st0" d="M14.69,10.77c-2.68-.04-5.43-.07-7.99-.58-1.38-.25-2.75-.63-3.67-1.31-2.49-1.91-1.59-4.77,1.74-6.02,1.5-.56,3.4-.6,5.17-.69,3.93-.22,7.85-.23,11.71-.15,2.03,0,12.5.36,14.47.57,1.18.13,2.42.59,3.15,1.23.79.72,1.12,1.66.99,2.56-.19,1.45-1.43,2.82-3.32,3.59-1.31.51-2.94.65-4.45.73-2.36.18-15.38.12-17.8.08ZM5.58,7.16c-.07-.13-.13-.26-.13-.38,0-.51,0-1.02.32-1.45.2-.3,1.18-.68,1.57-.77.59-.13.85-.56.39-.77-.92-.38-2.29.35-3.01.86-.72.43-.85,1.15-.84,1.79,0,.26.07.94.4,1.11.39.26,1.31,0,1.31-.39ZM9.88,4.13c.72,0,1.44-.6.85-.9-1.12-.51-2.22.9-.85.9Z"/>
  </g>
</svg>