<?xml version="1.0" encoding="UTF-8"?>
<svg id="Layer_1" xmlns="http://www.w3.org/2000/svg" version="1.1" viewBox="0 0 209.07 51.36">
  <!-- Generator: Adobe Illustrator 30.3.0, SVG Export Plug-In . SVG Version: 2.1.3 Build 182)  -->
  <defs>
    <style>
      .st0 {
        fill: #c2d83f;
      }
    </style>
  </defs>
  <path class="st0" d="M15.15,35.22c-1.87-1.19-3.35-3.06-4.28-5.08-1.19-2.66-1.55-5.8-1.19-8.75.36-2.99,1.51-6.05,3.53-8.28,1.87-2.12,4.79-3.56,7.6-3.82,2.38-.22,4.93.5,6.91,1.8,1.08.72,2.12,1.8,2.45,3.02.36,1.4-.29,3.17-1.37,4.1-.58.5-1.37.76-2.12.76-1.51-.04-2.95-.76-4.32-1.4-.43-.18-.94-.29-1.4-.18-.47.07-.86.4-1.19.76-.5.65-.79,1.44-1.01,2.23-.29,1.04-.43,2.12-.47,3.2-.04.94,0,1.91.29,2.84.22.61.61,1.22,1.19,1.51.58.25,1.22.29,1.84.22,1.29-.18,2.52-.65,3.74-1.01.68-.18,1.37-.32,2.09-.32,2.38,0,3.85,2.52,3.06,4.79-.58,1.69-2.12,3.06-3.71,3.82-1.76.83-3.74,1.37-5.72,1.4-2.02,0-4.18-.54-5.9-1.62ZM12.2,19.71c.11-1.01.47-1.98.97-2.88.76-1.44,1.76-2.84,3.1-3.74.25-.18.54-.29.83-.4.29-.14.36-.54.07-.65-.43-.18-1.26.36-1.58.61-1.4,1.01-2.48,2.48-3.24,4.03-.32.61-1.12,2.56-1.01,3.2.07.47.83.29.86-.18ZM18.78,12.11c.43-.11.54-.68.11-.72-.94-.14-.97.97-.11.72Z"/>
  <path class="st0" d="M37.29,35.94c-1.84-1.08-3.24-2.99-3.96-5-.54-1.37-.76-2.88-.72-4.36.11-2.12.47-4.28,1.3-6.26.43-1.12,1.08-2.2,1.91-3.06.94-.97,2.02-1.73,3.24-2.23,1.55-.61,3.31-.83,4.97-.61,2.05.25,4,1.62,5.25,3.28.9,1.22,1.4,2.77,1.58,4.28.32,3.02.11,6.3-1.08,9.14-.61,1.58-1.62,3.06-2.84,4.18-1.01.94-2.41,1.48-3.78,1.62-1.98.22-4.17.04-5.87-.97ZM35.49,25.29c.04-.25,0-.54.04-.83.25-2.23,1.04-4.61,2.59-6.26.11-.07.36-.4.5-.4.72-.22.22-1.08-.4-.65-.68.47-1.26,1.12-1.69,1.8-.65,1.08-1.22,2.23-1.55,3.42-.11.32-.47,2.09-.5,2.45-.04.22-.14.68.07.83.36.25.86.07.94-.36ZM40.78,16.5c.58-.61-.68-.86-.86-.32-.25.65.5.68.86.32ZM43.26,27.91c.54-.76.72-1.73.79-2.66.07-1.12-.04-2.27-.43-3.31-.07-.22-.18-.43-.32-.61-.76-.94-2.12-.14-2.52,1.01-.4,1.08-.68,2.23-.79,3.35-.11.83-.11,1.73.29,2.45.68,1.08,2.27.83,2.99-.22Z"/>
  <path class="st0" d="M65.62,35.65c-.5-.68-.76-1.58-.86-2.41-.29-2.48.11-5-.07-7.45-.04-.94-.14-1.91-.61-2.7-.11-.22-.32-.47-.58-.61-.72-.4-1.26.58-1.48,1.37-.18.72-.22,1.44-.25,2.16-.11,2.27.11,4.54-.14,6.8-.07.9-.22,1.84-.65,2.59-1.04,1.84-3.56,1.76-4.97.22-.9-1.01-1.3-2.38-1.66-3.64-1.12-4.25-1.62-8.85-.72-13.1.29-1.3.61-2.74,1.55-3.71,1.83-1.87,4.97-1.01,6.12,1.4,1.08-.94,2.38-1.76,3.78-1.98.9-.14,1.84-.07,2.66.29.94.36,1.73,1.04,2.34,1.84.86,1.04,1.44,2.3,1.76,3.6.54,2.05.61,4.21.58,6.33,0,2.66-.22,5.47-1.3,7.92-.32.79-.97,1.55-1.73,1.94-1.33.65-2.88.29-3.78-.86ZM55.54,25c.07-.18-.04-.86-.07-1.08-.18-1.22-.04-2.48.11-3.74.07-.54.43-1.94.9-2.27.29-.22.18-.65-.22-.61-.29,0-.68.5-.83.79-.18.32-.61,1.76-.65,2.16-.18,1.33-.36,2.7-.18,4.03.04.18.04.79.18.9.18.25.65.14.76-.18ZM57.66,16.43c.68-.18.54-1.01-.14-.83-.65.14-.5,1.01.14.83Z"/>
  <path class="st0" d="M84.55,36.52c-1.73,0-3.56-.5-4.93-1.55-1.33-1.01-2.16-2.41-2.41-4.1-.32-2.2-.22-4.43-.04-6.62-.43-.14-1.84-1.04-2.16-1.33-.4-.4-.79-.9-.9-1.48-.07-.58.14-1.15.4-1.69.4-.79,1.12-1.4,1.87-1.94.43-.32.97-.65,1.26-1.12.25-.5.25-1.08.32-1.62.14-1.01.22-2.12.68-3.06.22-.43.61-.83,1.04-1.08.54-.32,1.19-.43,1.84-.5.65-.04,1.33.04,1.94.25.58.25,1.15.65,1.44,1.19.25.43.36.94.4,1.44.07,1.08.04,2.16-.04,3.24,1.3-.07,2.59-.11,3.89.14.47.07.94.25,1.26.54,1.26,1.22,1.08,3.85.22,5.36-.36.58-1.08.97-1.76,1.15-1.01.29-2.09.11-3.13.04-.22-.04-.43-.07-.65-.11-.07.61-.07,1.22-.04,1.84.04.54.18,1.76.65,2.02.47.25,1.84-.07,2.34-.18.61-.18,1.3-.18,1.94-.07.58.11,1.19.54,1.4,1.08.61,1.4.9,3.06.54,4.54-.18.76-.65,1.51-1.26,1.98-1.73,1.26-4.03,1.62-6.12,1.66ZM79.66,16.25c-.04-.86,0-1.8.25-2.66.04-.18.25-.76.43-.86.58-.43-.25-.97-.68-.36-.54.79-.72,1.87-.79,2.88,0,.22-.11,1.04-.04,1.22.18.36.83.18.83-.22ZM81.67,11.93c.25-.11.36-.43.14-.61-.29-.18-.72.04-.76.36-.04.29.32.4.61.25Z"/>
  <path class="st0" d="M98.7,35.76c-1.08-.43-2.09-1.22-2.81-2.16-1.04-1.3-1.66-3.02-1.8-4.68-.22-2.45.07-5.04.97-7.34.43-1.15,1.01-2.23,1.8-3.2,2.2-2.7,5.94-3.92,9.32-3.1,1.37.36,2.74,1.08,3.71,2.12,1.19,1.26,1.8,3.06,2.02,4.75.36,2.56.04,5.18-.18,7.78-.11,1.19-.29,2.38-.65,3.49-.22.61-.43,1.19-.79,1.69-.5.65-1.3,1.04-2.09.97-1.04-.07-2.05-.94-2.59-1.84-.86.9-2.05,1.62-3.28,1.87-1.19.25-2.52.11-3.64-.36ZM97.23,23.31c0-.22.29-1.15.36-1.37.14-.43.68-1.94,1.04-2.27.25-.22.47-.5.68-.76.14-.18.94-.68,1.15-.79.76.07.72-.97,0-.76-.36.07-1.44.68-1.69.94-.22.18-.36.47-.58.68-.18.18-.4.32-.5.58-.4.61-1.4,3.13-1.48,3.85-.07.61,1.01.54,1.01-.11ZM104.28,27.77c.29-.18.54-.43.76-.72.54-.76.97-1.69.94-2.63-.07-1.44-1.3-2.63-2.7-2.23-1.19.29-2.23,1.94-2.27,3.17-.07,1.84,1.69,3.35,3.28,2.41ZM102.59,16.5c-.47,0-.68.58-.29.76.72.29,1.04-.83.29-.76Z"/>
  <path class="st0" d="M122.35,36.41c-1.98-.4-3.96-1.3-5.4-2.7-1.37-1.37-2.34-3.24-2.66-5.11-.54-3.24-.11-6.8,1.37-9.68.76-1.48,1.87-2.81,3.2-3.71,1.04-.68,2.27-1.19,3.49-1.33,3.24-.47,7.49,1.01,8.32,4.18.54,1.98-.5,4.21-2.52,4.54-1.26.18-2.45-.5-3.67-.79-1.4-.36-2.66.9-3.1,2.27-.5,1.69.18,3.92,1.8,4.57.79.32,1.73.43,2.56.25.32-.07,1.87-.76,2.2-.86.47-.22,1.01-.22,1.48-.04,1.55.58,2.12,2.63,1.66,4.25-.18.65-.54,1.26-.97,1.8-.76.9-1.84,1.58-2.95,1.98-1.48.58-3.2.68-4.79.4ZM118.46,19.28c.11-.76,1.33-2.16,1.98-2.56.43-.25.86-.47,1.33-.5.25-.04.54-.22.5-.5-.04-.25-.4-.29-.65-.25-.22,0-.43,0-.61.07-.32.07-1.3.58-1.51.83-.4.36-.79.76-1.12,1.22-.22.29-.83,1.4-.86,1.76-.07.58.86.5.94-.07ZM123.94,15.14c-.36-.25-1.01.14-.68.58.29.32,1.19-.25.68-.58Z"/>
  <path class="st0" d="M143.16,36.52c-1.73,0-3.56-.5-4.93-1.55-1.33-1.01-2.16-2.41-2.41-4.1-.32-2.2-.22-4.43-.04-6.62-.43-.14-1.84-1.04-2.16-1.33-.4-.4-.79-.9-.9-1.48-.07-.58.14-1.15.4-1.69.4-.79,1.12-1.4,1.87-1.94.43-.32.97-.65,1.26-1.12.25-.5.25-1.08.32-1.62.14-1.01.22-2.12.68-3.06.22-.43.61-.83,1.04-1.08.54-.32,1.19-.43,1.84-.5.65-.04,1.33.04,1.94.25.58.25,1.15.65,1.44,1.19.25.43.36.94.4,1.44.07,1.08.04,2.16-.04,3.24,1.3-.07,2.59-.11,3.89.14.47.07.94.25,1.26.54,1.26,1.22,1.08,3.85.22,5.36-.36.58-1.08.97-1.76,1.15-1.01.29-2.09.11-3.13.04-.22-.04-.43-.07-.65-.11-.07.61-.07,1.22-.04,1.84.04.54.18,1.76.65,2.02.47.25,1.84-.07,2.34-.18.61-.18,1.3-.18,1.94-.07.58.11,1.19.54,1.4,1.08.61,1.4.9,3.06.54,4.54-.18.76-.65,1.51-1.26,1.98-1.73,1.26-4.03,1.62-6.12,1.66ZM138.26,16.25c-.04-.86,0-1.8.25-2.66.04-.18.25-.76.43-.86.58-.43-.25-.97-.68-.36-.54.79-.72,1.87-.79,2.88,0,.22-.11,1.04-.04,1.22.18.36.83.18.83-.22ZM140.28,11.93c.25-.11.36-.43.14-.61-.29-.18-.72.04-.76.36-.04.29.32.4.61.25Z"/>
  <path class="st0" d="M170.27,36.16c-1.8-.47-3.6-1.44-4.9-2.77-1.15-1.22-1.94-2.81-2.41-4.39-.76-2.56-.83-5.33-.76-7.99.04-2.16.07-4.32.61-6.41.32-1.44.97-2.88,2.05-3.89,1.69-1.58,4.36-1.91,5.72-.04.61.79.86,1.87.94,2.88.22,2.88-.68,5.76-.68,8.67,0,.76.11,1.58.36,2.3.25.61.76,1.22,1.37,1.44,1.08.32,2.23-.65,2.7-1.66.4-.79.54-1.73.5-2.59-.07-3.06-.54-6.19.07-9.21.22-.97.61-2.02,1.4-2.63,1.55-1.19,3.71-.61,4.9.94.76,1.01,1.19,2.27,1.44,3.49.72,3.82.9,7.81.32,11.63-.4,2.56-1.37,5.15-3.06,7.13-.97,1.12-2.27,2.05-3.67,2.63-2.12.9-4.64,1.04-6.91.47ZM164.33,19.85c0-1.91-.14-3.89.5-5.69.11-.25.32-.47.43-.72.07-.14.14-.36.32-.4.32-.07.5-.54.14-.68-.36-.11-.83.22-1.04.58-.11.14-.61.94-.65,1.12-.14.32-.47,1.8-.47,2.12-.04.58-.22,3.42-.11,4,.11.61,1.15.25.86-.32ZM167.24,11.65c.29-.29.22-.79-.43-.61-.5.14-.14,1.19.43.61Z"/>
  <path class="st0" d="M191.22,36.63c-1.04-.18-2.12-.5-2.99-1.12-.54-.36-1.04-.9-1.22-1.51-.14-.43-.18-.86-.22-1.3-.04-1.26.29-3.38,1.44-3.85.58-.22,1.26-.25,1.87-.14.32.07,1.91.68,2.23.79.61.25,1.3.54,1.94.43.54-.14.76-.79.4-1.22-.47-.61-2.88-1.22-3.64-1.48-1.22-.36-2.34-1.19-3.02-2.27-1.84-2.81-1.3-7.45,1.19-9.65,1.01-.9,2.38-1.37,3.71-1.62,2.12-.36,4.39-.22,6.44.47,3.2,1.08,4,5.22,1.4,7.45-.36.32-.86.5-1.37.58-.83.11-1.73-.07-2.52-.36-.94-.36-2.63-.36-2.05.43.5.68,3.17,1.4,3.96,1.69.54.18,1.08.43,1.55.76,1.08.76,1.8,2.09,2.09,3.38.5,2.16-.07,4.57-1.51,6.19-.79.94-1.91,1.58-3.06,1.98-2.09.72-4.43.72-6.62.36ZM189.31,21.87c-.36-.76-.25-1.76,0-2.59.32-1.08.97-2.27,1.94-2.81.07-.04.25-.14.32-.14.47.04.79-.54.36-.72-.22-.07-.47-.04-.68.07-.86.32-1.62,1.08-2.12,1.87-.47.76-.79,1.8-.9,2.66-.11.65-.07,1.37.18,1.98.22.54,1.15.22.9-.32ZM193.67,15.53c.54-.58-.54-1.08-.83-.32-.14.43.5.68.83.32Z"/>
</svg>